<?xml version="1.0" encoding="utf-8"?>
<!-- Generator: Adobe Illustrator 21.0.2, SVG Export Plug-In . SVG Version: 6.00 Build 0)  -->
<svg version="1.1" xmlns="http://www.w3.org/2000/svg" xmlns:xlink="http://www.w3.org/1999/xlink" x="0px" y="0px"
	 viewBox="0 0 595.3 841.9" style="enable-background:new 0 0 595.3 841.9;" xml:space="preserve">
<style type="text/css">
	.st0{fill:#013A69;}
	.st1{fill:#428ECA;}
	.st2{fill:#FFFFFF;}
	.st3{fill:#F2D86D;}
	.st4{fill:none;}
</style>
<g id="_x31__x5F_P">
	<circle class="st0" cx="-315.1" cy="118.4" r="58"/>
	<circle class="st0" cx="-316" cy="414.8" r="58"/>
	<rect x="-616.6" y="692.1" class="st0" width="596.9" height="150.9"/>
	<circle class="st1" cx="299.9" cy="118.4" r="58"/>
	<circle class="st1" cx="298.9" cy="414.8" r="58"/>
	<rect x="-1.6" y="692.1" class="st1" width="596.9" height="150.9"/>
</g>
<g id="_x31__x5F_R">
	<path class="st2" d="M-328.3,174.9c0.1-0.3,0.2-0.6,0.2-0.8c0.1-0.5,0.3-1,0.3-1.4c0-1.2,0-2.4,0-3.6c0-1.2-0.6-2.2-1.5-2.9
		c-0.8-0.7-1.8-1.3-2.9-1.4c-0.3,0-0.5-0.1-0.8-0.1c-3.1,0-6.1-0.8-8.8-2.3c-1.1-0.6-2-1.4-3-2.2c-1.9-1.6-3.1-3.8-4.5-5.8
		c-1.2-1.8-2.4-3.7-3.5-5.6c-0.9-1.5-1.6-3.1-2.3-4.6c-0.2-0.4-0.2-0.8,0.2-1.2c0.4-0.5,0.8-1.1,1.5-1.3c0.2-0.1,0.5-0.1,0.7,0
		c0.6,0.2,1.1,0.6,1.5,1.1c2.2,2.7,4.4,5.4,6.6,8c0.5,0.6,1,1.2,1.4,1.9c1.5,2.3,3.7,3.3,6.4,3.5c1.3,0.1,2.6,0.1,3.9,0.2
		c0.1,0,0.3,0,0.5,0c-0.2-0.1-0.3-0.2-0.4-0.3c-2.2-1.4-4.4-2.7-6.5-4.1c-0.5-0.4-1.1-0.8-1.5-1.3c-0.5-0.5-0.2-1.4,0.4-1.8
		c0.5-0.3,1-0.4,1.5-0.2c1.5,0.6,3.1,1.2,4.6,1.9c2.9,1.2,5.8,2.4,8.6,4c2.3,1.3,4.5,2.8,6.2,4.8c0.2,0.3,0.4,0.6,0.5,0.9
		c0.4,0.9,0.7,1.7,0.7,2.7c0,4.3,0,8.5,0,12.8c0,0.3,0,0.6,0,0.6c-0.3,0-1.7-0.1-2.7-0.2c-0.1,0-1-0.1-1.5-0.2
		c-1.6-0.2-2.3-0.3-3.9-0.6C-327.1,175.2-327.6,175-328.3,174.9z"/>
	<path class="st2" d="M-302.2,174.9c-0.1-0.3-0.2-0.6-0.2-0.9c-0.1-0.5-0.3-1-0.3-1.4c0-1.2,0-2.4,0-3.6c0-1.2,0.6-2.2,1.5-2.9
		c0.8-0.7,1.8-1.3,2.9-1.4c0.3,0,0.5-0.1,0.8-0.1c3.1,0,6.1-0.8,8.8-2.3c1.1-0.6,2-1.4,3-2.2c1.9-1.6,3.1-3.8,4.5-5.8
		c1.2-1.8,2.4-3.7,3.5-5.6c0.9-1.5,1.6-3.1,2.3-4.6c0.2-0.4,0.2-0.8-0.2-1.2c-0.4-0.5-0.8-1.1-1.5-1.3c-0.2-0.1-0.5-0.1-0.7,0
		c-0.6,0.2-1.1,0.6-1.5,1.1c-2.2,2.7-4.4,5.4-6.6,8c-0.5,0.6-1,1.2-1.4,1.9c-1.5,2.3-3.7,3.3-6.4,3.5c-1.3,0.1-2.6,0.1-3.9,0.2
		c-0.1,0-0.3,0-0.5,0c0.2-0.1,0.3-0.2,0.4-0.3c2.2-1.4,4.4-2.7,6.5-4.1c0.5-0.4,1.1-0.8,1.5-1.3c0.5-0.5,0.2-1.4-0.4-1.8
		c-0.5-0.3-1-0.4-1.5-0.2c-1.5,0.6-3.1,1.2-4.6,1.9c-2.9,1.2-5.8,2.4-8.6,4c-2.3,1.3-4.5,2.8-6.2,4.8c-0.2,0.3-0.4,0.6-0.5,0.9
		c-0.4,0.9-0.7,1.7-0.7,2.7c0,4.3,0,8.5,0,12.8c0,0.3,0,0.6,0.1,0.6c0.3,0,1.9-0.1,2-0.2c0,0,0.2,0,2.2-0.2c1.4-0.2,2-0.2,3.5-0.6
		C-303.6,175.3-302.8,175.1-302.2,174.9z"/>
	<path class="st0" d="M-331.9,302.1c0.1-0.3,0.2-0.6,0.2-0.8c0.1-0.5,0.3-1,0.3-1.4c0-1.2,0-2.4,0-3.6c0-1.2-0.6-2.2-1.5-2.9
		c-0.8-0.7-1.8-1.3-2.9-1.4c-0.3,0-0.5-0.1-0.8-0.1c-3.1,0-6.1-0.8-8.8-2.3c-1.1-0.6-2-1.4-3-2.2c-1.9-1.6-3.1-3.8-4.5-5.8
		c-1.2-1.8-2.4-3.7-3.5-5.6c-0.9-1.5-1.6-3.1-2.3-4.6c-0.2-0.4-0.2-0.8,0.2-1.2c0.4-0.5,0.8-1.1,1.5-1.3c0.2-0.1,0.5-0.1,0.7,0
		c0.6,0.2,1.1,0.6,1.5,1.1c2.2,2.7,4.4,5.4,6.6,8c0.5,0.6,1,1.2,1.4,1.9c1.5,2.3,3.7,3.3,6.4,3.5c1.3,0.1,2.6,0.1,3.9,0.2
		c0.1,0,0.3,0,0.5,0c-0.2-0.1-0.3-0.2-0.4-0.3c-2.2-1.4-4.4-2.7-6.5-4.1c-0.5-0.4-1.1-0.8-1.5-1.3c-0.5-0.5-0.2-1.4,0.4-1.8
		c0.5-0.3,1-0.4,1.5-0.2c1.5,0.6,3.1,1.2,4.6,1.9c2.9,1.2,5.8,2.4,8.6,4c2.3,1.3,4.5,2.8,6.2,4.8c0.2,0.3,0.4,0.6,0.5,0.9
		c0.4,0.9,0.7,1.7,0.7,2.7c0,4.3,0,8.5,0,12.8c0,0.3,0,0.6,0,0.6c-0.3,0-1.7-0.1-2.7-0.2c-0.1,0-1-0.1-1.5-0.2
		c-1.6-0.2-2.3-0.3-3.9-0.6C-330.7,302.4-331.2,302.2-331.9,302.1z"/>
	<path class="st0" d="M-305.8,302.1c-0.1-0.3-0.2-0.6-0.2-0.9c-0.1-0.5-0.3-1-0.3-1.4c0-1.2,0-2.4,0-3.6c0-1.2,0.6-2.2,1.5-2.9
		c0.8-0.7,1.8-1.3,2.9-1.4c0.3,0,0.5-0.1,0.8-0.1c3.1,0,6.1-0.8,8.8-2.3c1.1-0.6,2-1.4,3-2.2c1.9-1.6,3.1-3.8,4.5-5.8
		c1.2-1.8,2.4-3.7,3.5-5.6c0.9-1.5,1.6-3.1,2.3-4.6c0.2-0.4,0.2-0.8-0.2-1.2c-0.4-0.5-0.8-1.1-1.5-1.3c-0.2-0.1-0.5-0.1-0.7,0
		c-0.6,0.2-1.1,0.6-1.5,1.1c-2.2,2.7-4.4,5.4-6.6,8c-0.5,0.6-1,1.2-1.4,1.9c-1.5,2.3-3.7,3.3-6.4,3.5c-1.3,0.1-2.6,0.1-3.9,0.2
		c-0.1,0-0.3,0-0.5,0c0.2-0.1,0.3-0.2,0.4-0.3c2.2-1.4,4.4-2.7,6.5-4.1c0.5-0.4,1.1-0.8,1.5-1.3c0.5-0.5,0.2-1.4-0.4-1.8
		c-0.5-0.3-1-0.4-1.5-0.2c-1.5,0.6-3.1,1.2-4.6,1.9c-2.9,1.2-5.8,2.4-8.6,4c-2.3,1.3-4.5,2.8-6.2,4.8c-0.2,0.3-0.4,0.6-0.5,0.9
		c-0.4,0.9-0.7,1.7-0.7,2.7c0,4.3,0,8.5,0,12.8c0,0.3,0,0.6,0.1,0.6c0.3,0,1.9-0.1,2-0.2c0,0,0.2,0,2.2-0.2c1.4-0.2,2-0.2,3.5-0.6
		C-307.2,302.5-306.4,302.3-305.8,302.1z"/>
	<path class="st2" d="M-336.1,818.3c0.1-0.3,0.2-0.6,0.2-0.8c0.1-0.5,0.3-1,0.3-1.4c0-1.2,0-2.4,0-3.6c0-1.2-0.6-2.2-1.5-2.9
		c-0.8-0.7-1.8-1.3-2.9-1.4c-0.3,0-0.5-0.1-0.8-0.1c-3.1,0-6.1-0.8-8.8-2.3c-1.1-0.6-2-1.4-3-2.2c-1.9-1.6-3.1-3.8-4.5-5.8
		c-1.2-1.8-2.4-3.7-3.5-5.6c-0.9-1.5-1.6-3.1-2.3-4.6c-0.2-0.4-0.2-0.8,0.2-1.2c0.4-0.5,0.8-1.1,1.5-1.3c0.2-0.1,0.5-0.1,0.7,0
		c0.6,0.2,1.1,0.6,1.5,1.1c2.2,2.7,4.4,5.4,6.6,8c0.5,0.6,1,1.2,1.4,1.9c1.5,2.3,3.7,3.3,6.4,3.5c1.3,0.1,2.6,0.1,3.9,0.2
		c0.1,0,0.3,0,0.5,0c-0.2-0.1-0.3-0.2-0.4-0.3c-2.2-1.4-4.4-2.7-6.5-4.1c-0.5-0.4-1.1-0.8-1.5-1.3c-0.5-0.5-0.2-1.4,0.4-1.8
		c0.5-0.3,1-0.4,1.5-0.2c1.5,0.6,3.1,1.2,4.6,1.9c2.9,1.2,5.8,2.4,8.6,4c2.3,1.3,4.5,2.8,6.2,4.8c0.2,0.3,0.4,0.6,0.5,0.9
		c0.4,0.9,0.7,1.7,0.7,2.7c0,4.3,0,8.5,0,12.8c0,0.3,0,0.6,0,0.6c-0.3,0-1.7-0.1-2.7-0.2c-0.1,0-1-0.1-1.5-0.2
		c-1.6-0.2-2.3-0.3-3.9-0.6C-334.9,818.6-335.5,818.5-336.1,818.3z"/>
	<path class="st2" d="M-310,818.3c-0.1-0.3-0.2-0.6-0.2-0.9c-0.1-0.5-0.3-1-0.3-1.4c0-1.2,0-2.4,0-3.6c0-1.2,0.6-2.2,1.5-2.9
		c0.8-0.7,1.8-1.3,2.9-1.4c0.3,0,0.5-0.1,0.8-0.1c3.1,0,6.1-0.8,8.8-2.3c1.1-0.6,2-1.4,3-2.2c1.9-1.6,3.1-3.8,4.5-5.8
		c1.2-1.8,2.4-3.7,3.5-5.6c0.9-1.5,1.6-3.1,2.3-4.6c0.2-0.4,0.2-0.8-0.2-1.2c-0.4-0.5-0.8-1.1-1.5-1.3c-0.2-0.1-0.5-0.1-0.7,0
		c-0.6,0.2-1.1,0.6-1.5,1.1c-2.2,2.7-4.4,5.4-6.6,8c-0.5,0.6-1,1.2-1.4,1.9c-1.5,2.3-3.7,3.3-6.4,3.5c-1.3,0.1-2.6,0.1-3.9,0.2
		c-0.1,0-0.3,0-0.5,0c0.2-0.1,0.3-0.2,0.4-0.3c2.2-1.4,4.4-2.7,6.5-4.1c0.5-0.4,1.1-0.8,1.5-1.3c0.5-0.5,0.2-1.4-0.4-1.8
		c-0.5-0.3-1-0.4-1.5-0.2c-1.5,0.6-3.1,1.2-4.6,1.9c-2.9,1.2-5.8,2.4-8.6,4c-2.3,1.3-4.5,2.8-6.2,4.8c-0.2,0.3-0.4,0.6-0.5,0.9
		c-0.4,0.9-0.7,1.7-0.7,2.7c0,4.3,0,8.5,0,12.8c0,0.3,0,0.6,0.1,0.6c0.3,0,1.9-0.1,2-0.2c0,0,0.2,0,2.2-0.2c1.4-0.2,2-0.2,3.5-0.5
		C-311.4,818.7-310.6,818.5-310,818.3z"/>
	<path class="st3" d="M-331.6,643.9c0.1-0.3,0.2-0.6,0.2-0.8c0.1-0.5,0.3-1,0.3-1.4c0-1.2,0-2.4,0-3.6c0-1.2-0.6-2.2-1.5-2.9
		c-0.8-0.7-1.8-1.3-2.9-1.4c-0.3,0-0.5-0.1-0.8-0.1c-3.1,0-6.1-0.8-8.8-2.3c-1.1-0.6-2-1.4-3-2.2c-1.9-1.6-3.1-3.8-4.5-5.8
		c-1.2-1.8-2.4-3.7-3.5-5.6c-0.9-1.5-1.6-3.1-2.3-4.6c-0.2-0.4-0.2-0.8,0.2-1.2c0.4-0.5,0.8-1.1,1.5-1.3c0.2-0.1,0.5-0.1,0.7,0
		c0.6,0.2,1.1,0.6,1.5,1.1c2.2,2.7,4.4,5.4,6.6,8c0.5,0.6,1,1.2,1.4,1.9c1.5,2.3,3.7,3.3,6.4,3.5c1.3,0.1,2.6,0.1,3.9,0.2
		c0.1,0,0.3,0,0.5,0c-0.2-0.1-0.3-0.2-0.4-0.3c-2.2-1.4-4.4-2.7-6.5-4.1c-0.5-0.4-1.1-0.8-1.5-1.3c-0.5-0.5-0.2-1.4,0.4-1.8
		c0.5-0.3,1-0.4,1.5-0.2c1.5,0.6,3.1,1.2,4.6,1.9c2.9,1.2,5.8,2.4,8.6,4c2.3,1.3,4.5,2.8,6.2,4.8c0.2,0.3,0.4,0.6,0.5,0.9
		c0.4,0.9,0.7,1.7,0.7,2.7c0,4.3,0,8.5,0,12.8c0,0.3,0,0.6,0,0.6c-0.3,0-1.7-0.1-2.7-0.2c-0.1,0-1-0.1-1.5-0.2
		c-1.6-0.2-2.3-0.3-3.9-0.6C-330.4,644.2-331,644.1-331.6,643.9z"/>
	<path class="st3" d="M-305.5,644c-0.1-0.3-0.2-0.6-0.2-0.9c-0.1-0.5-0.3-1-0.3-1.4c0-1.2,0-2.4,0-3.6c0-1.2,0.6-2.2,1.5-2.9
		c0.8-0.7,1.8-1.3,2.9-1.4c0.3,0,0.5-0.1,0.8-0.1c3.1,0,6.1-0.8,8.8-2.3c1.1-0.6,2-1.4,3-2.2c1.9-1.6,3.1-3.8,4.5-5.8
		c1.2-1.8,2.4-3.7,3.5-5.6c0.9-1.5,1.6-3.1,2.3-4.6c0.2-0.4,0.2-0.8-0.2-1.2c-0.4-0.5-0.8-1.1-1.5-1.3c-0.2-0.1-0.5-0.1-0.7,0
		c-0.6,0.2-1.1,0.6-1.5,1.1c-2.2,2.7-4.4,5.4-6.6,8c-0.5,0.6-1,1.2-1.4,1.9c-1.5,2.3-3.7,3.3-6.4,3.5c-1.3,0.1-2.6,0.1-3.9,0.2
		c-0.1,0-0.3,0-0.5,0c0.2-0.1,0.3-0.2,0.4-0.3c2.2-1.4,4.4-2.7,6.5-4.1c0.5-0.4,1.1-0.8,1.5-1.3c0.5-0.5,0.2-1.4-0.4-1.8
		c-0.5-0.3-1-0.4-1.5-0.2c-1.5,0.6-3.1,1.2-4.6,1.9c-2.9,1.2-5.8,2.4-8.6,4c-2.3,1.3-4.5,2.8-6.2,4.8c-0.2,0.3-0.4,0.6-0.5,0.9
		c-0.4,0.9-0.7,1.7-0.7,2.7c0,4.3,0,8.5,0,12.8c0,0.3,0,0.6,0.1,0.6c0.3,0,1.9-0.1,2-0.2c0,0,0.2,0,2.2-0.2c1.4-0.2,2-0.2,3.6-0.6
		C-306.9,644.4-306.1,644.1-305.5,644z"/>
	<path class="st3" d="M-329.2,471.2c0.1-0.3,0.2-0.6,0.2-0.8c0.1-0.5,0.3-1,0.3-1.4c0-1.2,0-2.4,0-3.6c0-1.2-0.6-2.2-1.5-2.9
		c-0.8-0.7-1.8-1.3-2.9-1.4c-0.3,0-0.5-0.1-0.8-0.1c-3.1,0-6.1-0.8-8.8-2.3c-1.1-0.6-2-1.4-3-2.2c-1.9-1.6-3.1-3.8-4.5-5.8
		c-1.2-1.8-2.4-3.7-3.5-5.6c-0.9-1.5-1.6-3.1-2.3-4.6c-0.2-0.4-0.2-0.8,0.2-1.2c0.4-0.5,0.8-1.1,1.5-1.3c0.2-0.1,0.5-0.1,0.7,0
		c0.6,0.2,1.1,0.6,1.5,1.1c2.2,2.7,4.4,5.4,6.6,8c0.5,0.6,1,1.2,1.4,1.9c1.5,2.3,3.7,3.3,6.4,3.5c1.3,0.1,2.6,0.1,3.9,0.2
		c0.1,0,0.3,0,0.5,0c-0.2-0.1-0.3-0.2-0.4-0.3c-2.2-1.4-4.4-2.7-6.5-4.1c-0.5-0.4-1.1-0.8-1.5-1.3c-0.5-0.5-0.2-1.4,0.4-1.8
		c0.5-0.3,1-0.4,1.5-0.2c1.5,0.6,3.1,1.2,4.6,1.9c2.9,1.2,5.8,2.4,8.6,4c2.3,1.3,4.5,2.8,6.2,4.8c0.2,0.3,0.4,0.6,0.5,0.9
		c0.4,0.9,0.7,1.7,0.7,2.7c0,4.3,0,8.5,0,12.8c0,0.3,0,0.6,0,0.6c-0.3,0-1.7-0.1-2.7-0.2c-0.1,0-1-0.1-1.5-0.2
		c-1.6-0.2-2.3-0.3-3.9-0.6C-328,471.5-328.6,471.4-329.2,471.2z"/>
	<path class="st3" d="M-303.1,471.2c-0.1-0.3-0.2-0.6-0.2-0.9c-0.1-0.5-0.3-1-0.3-1.4c0-1.2,0-2.4,0-3.6c0-1.2,0.6-2.2,1.5-2.9
		c0.8-0.7,1.8-1.3,2.9-1.4c0.3,0,0.5-0.1,0.8-0.1c3.1,0,6.1-0.8,8.8-2.3c1.1-0.6,2-1.4,3-2.2c1.9-1.6,3.1-3.8,4.5-5.8
		c1.2-1.8,2.4-3.7,3.5-5.6c0.9-1.5,1.6-3.1,2.3-4.6c0.2-0.4,0.2-0.8-0.2-1.2c-0.4-0.5-0.8-1.1-1.5-1.3c-0.2-0.1-0.5-0.1-0.7,0
		c-0.6,0.2-1.1,0.6-1.5,1.1c-2.2,2.7-4.4,5.4-6.6,8c-0.5,0.6-1,1.2-1.4,1.9c-1.5,2.3-3.7,3.3-6.4,3.5c-1.3,0.1-2.6,0.1-3.9,0.2
		c-0.1,0-0.3,0-0.5,0c0.2-0.1,0.3-0.2,0.4-0.3c2.2-1.4,4.4-2.7,6.5-4.1c0.5-0.4,1.1-0.8,1.5-1.3c0.5-0.5,0.2-1.4-0.4-1.8
		c-0.5-0.3-1-0.4-1.5-0.2c-1.5,0.6-3.1,1.2-4.6,1.9c-2.9,1.2-5.8,2.4-8.6,4c-2.3,1.3-4.5,2.8-6.2,4.8c-0.2,0.3-0.4,0.6-0.5,0.9
		c-0.4,0.9-0.7,1.7-0.7,2.7c0,4.3,0,8.5,0,12.8c0,0.3,0,0.6,0.1,0.6c0.3,0,1.9-0.1,2-0.2c0,0,0.2,0,2.2-0.2c1.4-0.2,2-0.2,3.5-0.5
		C-304.5,471.6-303.7,471.4-303.1,471.2z"/>
	<path class="st2" d="M286.7,174.9c0.1-0.3,0.2-0.6,0.2-0.8c0.1-0.5,0.3-1,0.3-1.4c0-1.2,0-2.4,0-3.6c0-1.2-0.6-2.2-1.5-2.9
		c-0.8-0.7-1.8-1.3-2.9-1.4c-0.3,0-0.5-0.1-0.8-0.1c-3.1,0-6.1-0.8-8.8-2.3c-1.1-0.6-2-1.4-3-2.2c-1.9-1.6-3.1-3.8-4.5-5.8
		c-1.2-1.8-2.4-3.7-3.5-5.6c-0.9-1.5-1.6-3.1-2.3-4.6c-0.2-0.4-0.2-0.8,0.2-1.2c0.4-0.5,0.8-1.1,1.5-1.3c0.2-0.1,0.5-0.1,0.7,0
		c0.6,0.2,1.1,0.6,1.5,1.1c2.2,2.7,4.4,5.4,6.6,8c0.5,0.6,1,1.2,1.4,1.9c1.5,2.3,3.7,3.3,6.4,3.5c1.3,0.1,2.6,0.1,3.9,0.2
		c0.1,0,0.3,0,0.5,0c-0.2-0.1-0.3-0.2-0.4-0.3c-2.2-1.4-4.4-2.7-6.5-4.1c-0.5-0.4-1.1-0.8-1.5-1.3c-0.5-0.5-0.2-1.4,0.4-1.8
		c0.5-0.3,1-0.4,1.5-0.2c1.5,0.6,3.1,1.2,4.6,1.9c2.9,1.2,5.8,2.4,8.6,4c2.3,1.3,4.5,2.8,6.2,4.8c0.2,0.3,0.4,0.6,0.5,0.9
		c0.4,0.9,0.7,1.7,0.7,2.7c0,4.3,0,8.5,0,12.8c0,0.3,0,0.6,0,0.6c-0.3,0-1.7-0.1-2.7-0.2c-0.1,0-1-0.1-1.5-0.2
		c-1.6-0.2-2.3-0.3-3.9-0.6C287.9,175.2,287.3,175,286.7,174.9z"/>
	<path class="st2" d="M312.8,174.9c-0.1-0.3-0.2-0.6-0.2-0.9c-0.1-0.5-0.3-1-0.3-1.4c0-1.2,0-2.4,0-3.6c0-1.2,0.6-2.2,1.5-2.9
		c0.8-0.7,1.8-1.3,2.9-1.4c0.3,0,0.5-0.1,0.8-0.1c3.1,0,6.1-0.8,8.8-2.3c1.1-0.6,2-1.4,3-2.2c1.9-1.6,3.1-3.8,4.5-5.8
		c1.2-1.8,2.4-3.7,3.5-5.6c0.9-1.5,1.6-3.1,2.3-4.6c0.2-0.4,0.2-0.8-0.2-1.2c-0.4-0.5-0.8-1.1-1.5-1.3c-0.2-0.1-0.5-0.1-0.7,0
		c-0.6,0.2-1.1,0.6-1.5,1.1c-2.2,2.7-4.4,5.4-6.6,8c-0.5,0.6-1,1.2-1.4,1.9c-1.5,2.3-3.7,3.3-6.4,3.5c-1.3,0.1-2.6,0.1-3.9,0.2
		c-0.1,0-0.3,0-0.5,0c0.2-0.1,0.3-0.2,0.4-0.3c2.2-1.4,4.4-2.7,6.5-4.1c0.5-0.4,1.1-0.8,1.5-1.3c0.5-0.5,0.2-1.4-0.4-1.8
		c-0.5-0.3-1-0.4-1.5-0.2c-1.5,0.6-3.1,1.2-4.6,1.9c-2.9,1.2-5.8,2.4-8.6,4c-2.3,1.3-4.5,2.8-6.2,4.8c-0.2,0.3-0.4,0.6-0.5,0.9
		c-0.4,0.9-0.7,1.7-0.7,2.7c0,4.3,0,8.5,0,12.8c0,0.3,0,0.6,0.1,0.6c0.3,0,1.9-0.1,2-0.2c0,0,0.2,0,2.2-0.2c1.4-0.2,2-0.2,3.6-0.6
		C311.4,175.3,312.2,175.1,312.8,174.9z"/>
	<path class="st1" d="M283.1,302.1c0.1-0.3,0.2-0.6,0.2-0.8c0.1-0.5,0.3-1,0.3-1.4c0-1.2,0-2.4,0-3.6c0-1.2-0.6-2.2-1.5-2.9
		c-0.8-0.7-1.8-1.3-2.9-1.4c-0.3,0-0.5-0.1-0.8-0.1c-3.1,0-6.1-0.8-8.8-2.3c-1.1-0.6-2-1.4-3-2.2c-1.9-1.6-3.1-3.8-4.5-5.8
		c-1.2-1.8-2.4-3.7-3.5-5.6c-0.9-1.5-1.6-3.1-2.3-4.6c-0.2-0.4-0.2-0.8,0.2-1.2c0.4-0.5,0.8-1.1,1.5-1.3c0.2-0.1,0.5-0.1,0.7,0
		c0.6,0.2,1.1,0.6,1.5,1.1c2.2,2.7,4.4,5.4,6.6,8c0.5,0.6,1,1.2,1.4,1.9c1.5,2.3,3.7,3.3,6.4,3.5c1.3,0.1,2.6,0.1,3.9,0.2
		c0.1,0,0.3,0,0.5,0c-0.2-0.1-0.3-0.2-0.4-0.3c-2.2-1.4-4.4-2.7-6.5-4.1c-0.5-0.4-1.1-0.8-1.5-1.3c-0.5-0.5-0.2-1.4,0.4-1.8
		c0.5-0.3,1-0.4,1.5-0.2c1.5,0.6,3.1,1.2,4.6,1.9c2.9,1.2,5.8,2.4,8.6,4c2.3,1.3,4.5,2.8,6.2,4.8c0.2,0.3,0.4,0.6,0.5,0.9
		c0.4,0.9,0.7,1.7,0.7,2.7c0,4.3,0,8.5,0,12.8c0,0.3,0,0.6,0,0.6c-0.3,0-1.7-0.1-2.7-0.2c-0.1,0-1-0.1-1.5-0.2
		c-1.6-0.2-2.3-0.3-3.9-0.6C284.3,302.4,283.7,302.2,283.1,302.1z"/>
	<path class="st1" d="M309.2,302.1c-0.1-0.3-0.2-0.6-0.2-0.9c-0.1-0.5-0.3-1-0.3-1.4c0-1.2,0-2.4,0-3.6c0-1.2,0.6-2.2,1.5-2.9
		c0.8-0.7,1.8-1.3,2.9-1.4c0.3,0,0.5-0.1,0.8-0.1c3.1,0,6.1-0.8,8.8-2.3c1.1-0.6,2-1.4,3-2.2c1.9-1.6,3.1-3.8,4.5-5.8
		c1.2-1.8,2.4-3.7,3.5-5.6c0.9-1.5,1.6-3.1,2.3-4.6c0.2-0.4,0.2-0.8-0.2-1.2c-0.4-0.5-0.8-1.1-1.5-1.3c-0.2-0.1-0.5-0.1-0.7,0
		c-0.6,0.2-1.1,0.6-1.5,1.1c-2.2,2.7-4.4,5.4-6.6,8c-0.5,0.6-1,1.2-1.4,1.9c-1.5,2.3-3.7,3.3-6.4,3.5c-1.3,0.1-2.6,0.1-3.9,0.2
		c-0.1,0-0.3,0-0.5,0c0.2-0.1,0.3-0.2,0.4-0.3c2.2-1.4,4.4-2.7,6.5-4.1c0.5-0.4,1.1-0.8,1.5-1.3c0.5-0.5,0.2-1.4-0.4-1.8
		c-0.5-0.3-1-0.4-1.5-0.2c-1.5,0.6-3.1,1.2-4.6,1.9c-2.9,1.2-5.8,2.4-8.6,4c-2.3,1.3-4.5,2.8-6.2,4.8c-0.2,0.3-0.4,0.6-0.5,0.9
		c-0.4,0.9-0.7,1.7-0.7,2.7c0,4.3,0,8.5,0,12.8c0,0.3,0,0.6,0.1,0.6c0.3,0,1.9-0.1,2-0.2c0,0,0.2,0,2.2-0.2c1.4-0.2,2-0.2,3.6-0.6
		C307.8,302.5,308.6,302.3,309.2,302.1z"/>
	<path class="st2" d="M278.8,818.3c0.1-0.3,0.2-0.6,0.2-0.8c0.1-0.5,0.3-1,0.3-1.4c0-1.2,0-2.4,0-3.6c0-1.2-0.6-2.2-1.5-2.9
		c-0.8-0.7-1.8-1.3-2.9-1.4c-0.3,0-0.5-0.1-0.8-0.1c-3.1,0-6.1-0.8-8.8-2.3c-1.1-0.6-2-1.4-3-2.2c-1.9-1.6-3.1-3.8-4.5-5.8
		c-1.2-1.8-2.4-3.7-3.5-5.6c-0.9-1.5-1.6-3.1-2.3-4.6c-0.2-0.4-0.2-0.8,0.2-1.2c0.4-0.5,0.8-1.1,1.5-1.3c0.2-0.1,0.5-0.1,0.7,0
		c0.6,0.2,1.1,0.6,1.5,1.1c2.2,2.7,4.4,5.4,6.6,8c0.5,0.6,1,1.2,1.4,1.9c1.5,2.3,3.7,3.3,6.4,3.5c1.3,0.1,2.6,0.1,3.9,0.2
		c0.1,0,0.3,0,0.5,0c-0.2-0.1-0.3-0.2-0.4-0.3c-2.2-1.4-4.4-2.7-6.5-4.1c-0.5-0.4-1.1-0.8-1.5-1.3c-0.5-0.5-0.2-1.4,0.4-1.8
		c0.5-0.3,1-0.4,1.5-0.2c1.5,0.6,3.1,1.2,4.6,1.9c2.9,1.2,5.8,2.4,8.6,4c2.3,1.3,4.5,2.8,6.2,4.8c0.2,0.3,0.4,0.6,0.5,0.9
		c0.4,0.9,0.7,1.7,0.7,2.7c0,4.3,0,8.5,0,12.8c0,0.3,0,0.6,0,0.6c-0.3,0-1.7-0.1-2.7-0.2c-0.1,0-1-0.1-1.5-0.2
		c-1.6-0.2-2.3-0.3-3.9-0.6C280,818.6,279.5,818.5,278.8,818.3z"/>
	<path class="st2" d="M305,818.3c-0.1-0.3-0.2-0.6-0.2-0.9c-0.1-0.5-0.3-1-0.3-1.4c0-1.2,0-2.4,0-3.6c0-1.2,0.6-2.2,1.5-2.9
		c0.8-0.7,1.8-1.3,2.9-1.4c0.3,0,0.5-0.1,0.8-0.1c3.1,0,6.1-0.8,8.8-2.3c1.1-0.6,2-1.4,3-2.2c1.9-1.6,3.1-3.8,4.5-5.8
		c1.2-1.8,2.4-3.7,3.5-5.6c0.9-1.5,1.6-3.1,2.3-4.6c0.2-0.4,0.2-0.8-0.2-1.2c-0.4-0.5-0.8-1.1-1.5-1.3c-0.2-0.1-0.5-0.1-0.7,0
		c-0.6,0.2-1.1,0.6-1.5,1.1c-2.2,2.7-4.4,5.4-6.6,8c-0.5,0.6-1,1.2-1.4,1.9c-1.5,2.3-3.7,3.3-6.4,3.5c-1.3,0.1-2.6,0.1-3.9,0.2
		c-0.1,0-0.3,0-0.5,0c0.2-0.1,0.3-0.2,0.4-0.3c2.2-1.4,4.4-2.7,6.5-4.1c0.5-0.4,1.1-0.8,1.5-1.3c0.5-0.5,0.2-1.4-0.4-1.8
		c-0.5-0.3-1-0.4-1.5-0.2c-1.5,0.6-3.1,1.2-4.6,1.9c-2.9,1.2-5.8,2.4-8.6,4c-2.3,1.3-4.5,2.8-6.2,4.8c-0.2,0.3-0.4,0.6-0.5,0.9
		c-0.4,0.9-0.7,1.7-0.7,2.7c0,4.3,0,8.5,0,12.8c0,0.3,0,0.6,0.1,0.6c0.3,0,1.9-0.1,2-0.2c0,0,0.2,0,2.2-0.2c1.4-0.2,2-0.2,3.6-0.5
		C303.6,818.7,304.3,818.5,305,818.3z"/>
	<path class="st3" d="M283.3,643.9c0.1-0.3,0.2-0.6,0.2-0.8c0.1-0.5,0.3-1,0.3-1.4c0-1.2,0-2.4,0-3.6c0-1.2-0.6-2.2-1.5-2.9
		c-0.8-0.7-1.8-1.3-2.9-1.4c-0.3,0-0.5-0.1-0.8-0.1c-3.1,0-6.1-0.8-8.8-2.3c-1.1-0.6-2-1.4-3-2.2c-1.9-1.6-3.1-3.8-4.5-5.8
		c-1.2-1.8-2.4-3.7-3.5-5.6c-0.9-1.5-1.6-3.1-2.3-4.6c-0.2-0.4-0.2-0.8,0.2-1.2c0.4-0.5,0.8-1.1,1.5-1.3c0.2-0.1,0.5-0.1,0.7,0
		c0.6,0.2,1.1,0.6,1.5,1.1c2.2,2.7,4.4,5.4,6.6,8c0.5,0.6,1,1.2,1.4,1.9c1.5,2.3,3.7,3.3,6.4,3.5c1.3,0.1,2.6,0.1,3.9,0.2
		c0.1,0,0.3,0,0.5,0c-0.2-0.1-0.3-0.2-0.4-0.3c-2.2-1.4-4.4-2.7-6.5-4.1c-0.5-0.4-1.1-0.8-1.5-1.3c-0.5-0.5-0.2-1.4,0.4-1.8
		c0.5-0.3,1-0.4,1.5-0.2c1.5,0.6,3.1,1.2,4.6,1.9c2.9,1.2,5.8,2.4,8.6,4c2.3,1.3,4.5,2.8,6.2,4.8c0.2,0.3,0.4,0.6,0.5,0.9
		c0.4,0.9,0.7,1.7,0.7,2.7c0,4.3,0,8.5,0,12.8c0,0.3,0,0.6,0,0.6c-0.3,0-1.7-0.1-2.7-0.2c-0.1,0-1-0.1-1.5-0.2
		c-1.6-0.2-2.3-0.3-3.9-0.6C284.5,644.2,284,644.1,283.3,643.9z"/>
	<path class="st3" d="M309.5,644c-0.1-0.3-0.2-0.6-0.2-0.9c-0.1-0.5-0.3-1-0.3-1.4c0-1.2,0-2.4,0-3.6c0-1.2,0.6-2.2,1.5-2.9
		c0.8-0.7,1.8-1.3,2.9-1.4c0.3,0,0.5-0.1,0.8-0.1c3.1,0,6.1-0.8,8.8-2.3c1.1-0.6,2-1.4,3-2.2c1.9-1.6,3.1-3.8,4.5-5.8
		c1.2-1.8,2.4-3.7,3.5-5.6c0.9-1.5,1.6-3.1,2.3-4.6c0.2-0.4,0.2-0.8-0.2-1.2c-0.4-0.5-0.8-1.1-1.5-1.3c-0.2-0.1-0.5-0.1-0.7,0
		c-0.6,0.2-1.1,0.6-1.5,1.1c-2.2,2.7-4.4,5.4-6.6,8c-0.5,0.6-1,1.2-1.4,1.9c-1.5,2.3-3.7,3.3-6.4,3.5c-1.3,0.1-2.6,0.1-3.9,0.2
		c-0.1,0-0.3,0-0.5,0c0.2-0.1,0.3-0.2,0.4-0.3c2.2-1.4,4.4-2.7,6.5-4.1c0.5-0.4,1.1-0.8,1.5-1.3c0.5-0.5,0.2-1.4-0.4-1.8
		c-0.5-0.3-1-0.4-1.5-0.2c-1.5,0.6-3.1,1.2-4.6,1.9c-2.9,1.2-5.8,2.4-8.6,4c-2.3,1.3-4.5,2.8-6.2,4.8c-0.2,0.3-0.4,0.6-0.5,0.9
		c-0.4,0.9-0.7,1.7-0.7,2.7c0,4.3,0,8.5,0,12.8c0,0.3,0,0.6,0.1,0.6c0.3,0,1.9-0.1,2-0.2c0,0,0.2,0,2.2-0.2c1.4-0.2,2-0.2,3.5-0.6
		C308.1,644.4,308.8,644.1,309.5,644z"/>
	<path class="st3" d="M285.8,471.2c0.1-0.3,0.2-0.6,0.2-0.8c0.1-0.5,0.3-1,0.3-1.4c0-1.2,0-2.4,0-3.6c0-1.2-0.6-2.2-1.5-2.9
		c-0.8-0.7-1.8-1.3-2.9-1.4c-0.3,0-0.5-0.1-0.8-0.1c-3.1,0-6.1-0.8-8.8-2.3c-1.1-0.6-2-1.4-3-2.2c-1.9-1.6-3.1-3.8-4.5-5.8
		c-1.2-1.8-2.4-3.7-3.5-5.6c-0.9-1.5-1.6-3.1-2.3-4.6c-0.2-0.4-0.2-0.8,0.2-1.2c0.4-0.5,0.8-1.1,1.5-1.3c0.2-0.1,0.5-0.1,0.7,0
		c0.6,0.2,1.1,0.6,1.5,1.1c2.2,2.7,4.4,5.4,6.6,8c0.5,0.6,1,1.2,1.4,1.9c1.5,2.3,3.7,3.3,6.4,3.5c1.3,0.1,2.6,0.1,3.9,0.2
		c0.1,0,0.3,0,0.5,0c-0.2-0.1-0.3-0.2-0.4-0.3c-2.2-1.4-4.4-2.7-6.5-4.1c-0.5-0.4-1.1-0.8-1.5-1.3c-0.5-0.5-0.2-1.4,0.4-1.8
		c0.5-0.3,1-0.4,1.5-0.2c1.5,0.6,3.1,1.2,4.6,1.9c2.9,1.2,5.8,2.4,8.6,4c2.3,1.3,4.5,2.8,6.2,4.8c0.2,0.3,0.4,0.6,0.5,0.9
		c0.4,0.9,0.7,1.7,0.7,2.7c0,4.3,0,8.5,0,12.8c0,0.3,0,0.6,0,0.6c-0.3,0-1.7-0.1-2.7-0.2c-0.1,0-1-0.1-1.5-0.2
		c-1.6-0.2-2.3-0.3-3.9-0.6C287,471.5,286.4,471.4,285.8,471.2z"/>
	<path class="st3" d="M311.9,471.2c-0.1-0.3-0.2-0.6-0.2-0.9c-0.1-0.5-0.3-1-0.3-1.4c0-1.2,0-2.4,0-3.6c0-1.2,0.6-2.2,1.5-2.9
		c0.8-0.7,1.8-1.3,2.9-1.4c0.3,0,0.5-0.1,0.8-0.1c3.1,0,6.1-0.8,8.8-2.3c1.1-0.6,2-1.4,3-2.2c1.9-1.6,3.1-3.8,4.5-5.8
		c1.2-1.8,2.4-3.7,3.5-5.6c0.9-1.5,1.6-3.1,2.3-4.6c0.2-0.4,0.2-0.8-0.2-1.2c-0.4-0.5-0.8-1.1-1.5-1.3c-0.2-0.1-0.5-0.1-0.7,0
		c-0.6,0.2-1.1,0.6-1.5,1.1c-2.2,2.7-4.4,5.4-6.6,8c-0.5,0.6-1,1.2-1.4,1.9c-1.5,2.3-3.7,3.3-6.4,3.5c-1.3,0.1-2.6,0.1-3.9,0.2
		c-0.1,0-0.3,0-0.5,0c0.2-0.1,0.3-0.2,0.4-0.3c2.2-1.4,4.4-2.7,6.5-4.1c0.5-0.4,1.1-0.8,1.5-1.3c0.5-0.5,0.2-1.4-0.4-1.8
		c-0.5-0.3-1-0.4-1.5-0.2c-1.5,0.6-3.1,1.2-4.6,1.9c-2.9,1.2-5.8,2.4-8.6,4c-2.3,1.3-4.5,2.8-6.2,4.8c-0.2,0.3-0.4,0.6-0.5,0.9
		c-0.4,0.9-0.7,1.7-0.7,2.7c0,4.3,0,8.5,0,12.8c0,0.3,0,0.6,0.1,0.6c0.3,0,1.9-0.1,2-0.2c0,0,0.2,0,2.2-0.2c1.4-0.2,2-0.2,3.6-0.5
		C310.5,471.6,311.3,471.4,311.9,471.2z"/>
</g>
<g id="_x31__x5F_J">
	<path class="st2" d="M-348.7,124.5c0-4.3,0.5-8,1.1-11.8c1.9-11.4,8.7-17.7,20.2-17.5c11.1,0.2,22.2,1.5,33.3,2.4
		c3.7,0.3,7.5,0.6,11.2,1.6c4.3,1.1,5.7,4.4,3,7.9c-6.7,8.5-14.5,15.8-26.3,16.1c-3.4,0.1-5.6,1.5-8.2,3.3c-8.2,5.7-16.7,11-25.3,16
		c-4.1,2.4-6.9,0.7-7.6-4.2C-348.1,133.5-348.5,129.7-348.7,124.5z M-314.7,115.9c-1.4,1.9-3,3.8-4.3,5.9c-4,6.4-10,9.7-17.2,11.3
		c-1.6,0.3-3.3,0.4-4.8,1.1c-1.1,0.5-1.9,1.7-2.9,2.6c1.3,0.6,2.9,2,3.9,1.6C-328.8,134.1-317.9,129.5-314.7,115.9z M-313,120.3
		c2.1,0,3.5,0,4.3,0c-0.2-3.3-0.4-6.5-0.6-9.7c-0.2-0.1-0.4-0.1-0.6-0.2C-310.9,113.6-311.9,116.7-313,120.3z"/>
	<path class="st0" d="M-352.3,251.6c0-4.3,0.5-8,1.1-11.8c1.9-11.4,8.7-17.7,20.2-17.5c11.1,0.2,22.2,1.5,33.3,2.4
		c3.7,0.3,7.5,0.6,11.2,1.6c4.3,1.1,5.7,4.4,3,7.9c-6.7,8.5-14.5,15.8-26.3,16.1c-3.4,0.1-5.6,1.5-8.2,3.3c-8.2,5.7-16.7,11-25.3,16
		c-4.1,2.4-6.9,0.7-7.6-4.2C-351.7,260.7-352.1,256.9-352.3,251.6z M-318.3,243.1c-1.4,1.9-3,3.8-4.3,5.9c-4,6.4-10,9.7-17.2,11.3
		c-1.6,0.3-3.3,0.4-4.8,1.1c-1.1,0.5-1.9,1.7-2.9,2.6c1.3,0.6,2.9,2,3.9,1.6C-332.4,261.3-321.5,256.7-318.3,243.1z M-316.6,247.5
		c2.1,0,3.5,0,4.3,0c-0.2-3.3-0.4-6.5-0.6-9.7c-0.2-0.1-0.4-0.1-0.6-0.2C-314.5,240.8-315.5,243.9-316.6,247.5z"/>
	<path class="st2" d="M-356.6,767.9c0-4.3,0.5-8,1.1-11.8c1.9-11.4,8.7-17.7,20.2-17.5c11.1,0.2,22.2,1.5,33.3,2.4
		c3.7,0.3,7.5,0.6,11.2,1.6c4.3,1.1,5.7,4.4,3,7.9c-6.7,8.5-14.5,15.8-26.3,16.1c-3.4,0.1-5.6,1.5-8.2,3.3c-8.2,5.7-16.7,11-25.3,16
		c-4.1,2.4-6.9,0.7-7.6-4.2C-355.9,776.9-356.3,773.1-356.6,767.9z M-322.6,759.3c-1.4,1.9-3,3.8-4.3,5.9c-4,6.4-10,9.7-17.2,11.3
		c-1.6,0.3-3.3,0.4-4.8,1.1c-1.1,0.5-1.9,1.7-2.9,2.6c1.3,0.6,2.9,2,3.9,1.6C-336.7,777.5-325.8,772.9-322.6,759.3z M-320.9,763.8
		c2.1,0,3.5,0,4.3,0c-0.2-3.3-0.4-6.5-0.6-9.7c-0.2-0.1-0.4-0.1-0.6-0.2C-318.8,757-319.8,760.1-320.9,763.8z"/>
	<path class="st3" d="M-352.1,586.3c0-4.3,0.5-8,1.1-11.8c1.9-11.4,8.7-17.7,20.2-17.5c11.1,0.2,22.2,1.5,33.3,2.4
		c3.7,0.3,7.5,0.6,11.2,1.6c4.3,1.1,5.7,4.4,3,7.9c-6.7,8.5-14.5,15.8-26.3,16.1c-3.4,0.1-5.6,1.5-8.2,3.3c-8.2,5.7-16.7,11-25.3,16
		c-4.1,2.4-6.9,0.7-7.6-4.2C-351.4,595.3-351.8,591.6-352.1,586.3z M-318.1,577.7c-1.4,1.9-3,3.8-4.3,5.9c-4,6.4-10,9.7-17.2,11.3
		c-1.6,0.3-3.3,0.4-4.8,1.1c-1.1,0.5-1.9,1.7-2.9,2.6c1.3,0.6,2.9,2,3.9,1.6C-332.2,595.9-321.3,591.3-318.1,577.7z M-316.4,582.2
		c2.1,0,3.5,0,4.3,0c-0.2-3.3-0.4-6.5-0.6-9.7c-0.2-0.1-0.4-0.1-0.6-0.2C-314.3,575.4-315.3,578.5-316.4,582.2z"/>
	<path class="st3" d="M-349.6,420.8c0-4.3,0.5-8,1.1-11.8c1.9-11.4,8.7-17.7,20.2-17.5c11.1,0.2,22.2,1.5,33.3,2.4
		c3.7,0.3,7.5,0.6,11.2,1.6c4.3,1.1,5.7,4.4,3,7.9c-6.7,8.5-14.5,15.8-26.3,16.1c-3.4,0.1-5.6,1.5-8.2,3.3c-8.2,5.7-16.7,11-25.3,16
		c-4.1,2.4-6.9,0.7-7.6-4.2C-349,429.8-349.4,426-349.6,420.8z M-315.7,412.2c-1.4,1.9-3,3.8-4.3,5.9c-4,6.4-10,9.7-17.2,11.3
		c-1.6,0.3-3.3,0.4-4.8,1.1c-1.1,0.5-1.9,1.7-2.9,2.6c1.3,0.6,2.9,2,3.9,1.6C-329.8,430.4-318.8,425.8-315.7,412.2z M-314,416.7
		c2.1,0,3.5,0,4.3,0c-0.2-3.3-0.4-6.5-0.6-9.7c-0.2-0.1-0.4-0.1-0.6-0.2C-311.8,409.9-312.8,413-314,416.7z"/>
	<path class="st2" d="M266.3,124.5c0-4.3,0.5-8,1.1-11.8c1.9-11.4,8.7-17.7,20.2-17.5c11.1,0.2,22.2,1.5,33.3,2.4
		c3.7,0.3,7.5,0.6,11.2,1.6c4.3,1.1,5.7,4.4,3,7.9c-6.7,8.5-14.5,15.8-26.3,16.1c-3.4,0.1-5.6,1.5-8.2,3.3c-8.2,5.7-16.7,11-25.3,16
		c-4.1,2.4-6.9,0.7-7.6-4.2C266.9,133.5,266.5,129.7,266.3,124.5z M300.2,115.9c-1.4,1.9-3,3.8-4.3,5.9c-4,6.4-10,9.7-17.2,11.3
		c-1.6,0.3-3.3,0.4-4.8,1.1c-1.1,0.5-1.9,1.7-2.9,2.6c1.3,0.6,2.9,2,3.9,1.6C286.1,134.1,297.1,129.5,300.2,115.9z M301.9,120.3
		c2.1,0,3.5,0,4.3,0c-0.2-3.3-0.4-6.5-0.6-9.7c-0.2-0.1-0.4-0.1-0.6-0.2C304.1,113.6,303.1,116.7,301.9,120.3z"/>
	<path class="st1" d="M262.7,251.6c0-4.3,0.5-8,1.1-11.8c1.9-11.4,8.7-17.7,20.2-17.5c11.1,0.2,22.2,1.5,33.3,2.4
		c3.7,0.3,7.5,0.6,11.2,1.6c4.3,1.1,5.7,4.4,3,7.9c-6.7,8.5-14.5,15.8-26.3,16.1c-3.4,0.1-5.6,1.5-8.2,3.3c-8.2,5.7-16.7,11-25.3,16
		c-4.1,2.4-6.9,0.7-7.6-4.2C263.3,260.7,262.9,256.9,262.7,251.6z M296.6,243.1c-1.4,1.9-3,3.8-4.3,5.9c-4,6.4-10,9.7-17.2,11.3
		c-1.6,0.3-3.3,0.4-4.8,1.1c-1.1,0.5-1.9,1.7-2.9,2.6c1.3,0.6,2.9,2,3.9,1.6C282.5,261.3,293.5,256.7,296.6,243.1z M298.3,247.5
		c2.1,0,3.5,0,4.3,0c-0.2-3.3-0.4-6.5-0.6-9.7c-0.2-0.1-0.4-0.1-0.6-0.2C300.5,240.8,299.5,243.9,298.3,247.5z"/>
	<path class="st2" d="M258.4,767.9c0-4.3,0.5-8,1.1-11.8c1.9-11.4,8.7-17.7,20.2-17.5c11.1,0.2,22.2,1.5,33.3,2.4
		c3.7,0.3,7.5,0.6,11.2,1.6c4.3,1.1,5.7,4.4,3,7.9c-6.7,8.5-14.5,15.8-26.3,16.1c-3.4,0.1-5.6,1.5-8.2,3.3c-8.2,5.7-16.7,11-25.3,16
		c-4.1,2.4-6.9,0.7-7.6-4.2C259.1,776.9,258.6,773.1,258.4,767.9z M292.4,759.3c-1.4,1.9-3,3.8-4.3,5.9c-4,6.4-10,9.7-17.2,11.3
		c-1.6,0.3-3.3,0.4-4.8,1.1c-1.1,0.5-1.9,1.7-2.9,2.6c1.3,0.6,2.9,2,3.9,1.6C278.3,777.5,289.2,772.9,292.4,759.3z M294.1,763.8
		c2.1,0,3.5,0,4.3,0c-0.2-3.3-0.4-6.5-0.6-9.7c-0.2-0.1-0.4-0.1-0.6-0.2C296.2,757,295.2,760.1,294.1,763.8z"/>
	<path class="st3" d="M262.9,586.3c0-4.3,0.5-8,1.1-11.8c1.9-11.4,8.7-17.7,20.2-17.5c11.1,0.2,22.2,1.5,33.3,2.4
		c3.7,0.3,7.5,0.6,11.2,1.6c4.3,1.1,5.7,4.4,3,7.9c-6.7,8.5-14.5,15.8-26.3,16.1c-3.4,0.1-5.6,1.5-8.2,3.3c-8.2,5.7-16.7,11-25.3,16
		c-4.1,2.4-6.9,0.7-7.6-4.2C263.6,595.3,263.1,591.6,262.9,586.3z M296.9,577.7c-1.4,1.9-3,3.8-4.3,5.9c-4,6.4-10,9.7-17.2,11.3
		c-1.6,0.3-3.3,0.4-4.8,1.1c-1.1,0.5-1.9,1.7-2.9,2.6c1.3,0.6,2.9,2,3.9,1.6C282.8,595.9,293.7,591.3,296.9,577.7z M298.6,582.2
		c2.1,0,3.5,0,4.3,0c-0.2-3.3-0.4-6.5-0.6-9.7c-0.2-0.1-0.4-0.1-0.6-0.2C300.7,575.4,299.7,578.5,298.6,582.2z"/>
	<path class="st3" d="M265.3,420.8c0-4.3,0.5-8,1.1-11.8c1.9-11.4,8.7-17.7,20.2-17.5c11.1,0.2,22.2,1.5,33.3,2.4
		c3.7,0.3,7.5,0.6,11.2,1.6c4.3,1.1,5.7,4.4,3,7.9c-6.7,8.5-14.5,15.8-26.3,16.1c-3.4,0.1-5.6,1.5-8.2,3.3c-8.2,5.7-16.7,11-25.3,16
		c-4.1,2.4-6.9,0.7-7.6-4.2C266,429.8,265.6,426,265.3,420.8z M299.3,412.2c-1.4,1.9-3,3.8-4.3,5.9c-4,6.4-10,9.7-17.2,11.3
		c-1.6,0.3-3.3,0.4-4.8,1.1c-1.1,0.5-1.9,1.7-2.9,2.6c1.3,0.6,2.9,2,3.9,1.6C285.2,430.4,296.1,425.8,299.3,412.2z M301,416.7
		c2.1,0,3.5,0,4.3,0c-0.2-3.3-0.4-6.5-0.6-9.7c-0.2-0.1-0.4-0.1-0.6-0.2C303.1,409.9,302.1,413,301,416.7z"/>
</g>
<g id="_x31__x5F_N">
	<path id="SVGID_x5F_1_x5F__1_" class="st4" d="M-282.1,139.7c-10.4,18.4-33.8,24.8-52.1,14.4c-18.3-10.4-24.7-33.8-14.3-52.1
		c10.4-18.4,33.8-24.8,52.1-14.4S-271.7,121.3-282.1,139.7z"/>
	<text>	<textPath  xlink:href="#SVGID_x5F_1_x5F__1_" startOffset="69.7267%">
<tspan  class="st2" style="font-family:'Microsoft-Yi-Baiti'; font-size:15.6722px; letter-spacing:100.3;">• </tspan><tspan  class="st2" style="font-family:'BankGothicBT-Light'; font-size:15.6722px; letter-spacing:100.3;">hep-y </tspan><tspan  class="st2" style="font-family:'Microsoft-Yi-Baiti'; font-size:15.6722px; letter-spacing:100.3;">•</tspan>	</textPath>
</text>
	<path id="SVGID_x5F_2_x5F__1_" class="st4" d="M-285.8,267.1c-10.5,18.3-33.9,24.7-52.2,14.2c-18.3-10.5-24.6-33.9-14.1-52.2
		c10.5-18.3,33.9-24.7,52.2-14.2S-275.3,248.7-285.8,267.1z"/>
	<text>	<textPath  xlink:href="#SVGID_x5F_2_x5F__1_" startOffset="69.7267%">
<tspan  class="st0" style="font-family:'Microsoft-Yi-Baiti'; font-size:15.6722px; letter-spacing:100.3;">• </tspan><tspan  class="st0" style="font-family:'BankGothicBT-Light'; font-size:15.6722px; letter-spacing:100.3;">hep-y </tspan><tspan  class="st0" style="font-family:'Microsoft-Yi-Baiti'; font-size:15.6722px; letter-spacing:100.3;">•</tspan>	</textPath>
</text>
	<path id="SVGID_x5F_3_x5F__1_" class="st4" d="M-291.6,785.7c-11.8,17.5-35.6,22.2-53.1,10.4c-17.5-11.8-22-35.6-10.2-53.1
		c11.8-17.5,35.6-22.2,53.1-10.4C-284.3,744.4-279.7,768.2-291.6,785.7z"/>
	<text>	<textPath  xlink:href="#SVGID_x5F_3_x5F__1_" startOffset="69.7267%">
<tspan  class="st2" style="font-family:'Microsoft-Yi-Baiti'; font-size:15.6722px; letter-spacing:100.3;">• </tspan><tspan  class="st2" style="font-family:'BankGothicBT-Light'; font-size:15.6722px; letter-spacing:100.3;">hepy </tspan><tspan  class="st2" style="font-family:'Microsoft-Yi-Baiti'; font-size:15.6722px; letter-spacing:100.3;">•</tspan>	</textPath>
</text>
	<path id="SVGID_x5F_4_x5F__1_" class="st4" d="M-285.6,601.8c-10.6,18.3-33.9,24.6-52.2,14.1c-18.3-10.5-24.5-33.9-13.9-52.2
		c10.6-18.3,33.9-24.6,52.2-14.1C-281.3,560.1-275.1,583.5-285.6,601.8z"/>
	<text>	<textPath  xlink:href="#SVGID_x5F_4_x5F__1_" startOffset="69.7267%">
<tspan  class="st3" style="font-family:'Microsoft-Yi-Baiti'; font-size:15.6722px; letter-spacing:100.3;">• </tspan><tspan  class="st3" style="font-family:'BankGothicBT-Light'; font-size:15.6722px; letter-spacing:100.3;">hep-y </tspan><tspan  class="st3" style="font-family:'Microsoft-Yi-Baiti'; font-size:15.6722px; letter-spacing:100.3;">•</tspan>	</textPath>
</text>
	<path id="SVGID_x5F_5_x5F__1_" class="st4" d="M-283.2,436.2c-10.5,18.3-33.9,24.7-52.2,14.2c-18.3-10.5-24.5-33.9-14-52.2
		c10.5-18.3,33.9-24.7,52.2-14.2S-272.6,417.9-283.2,436.2z"/>
	<text>	<textPath  xlink:href="#SVGID_x5F_5_x5F__1_" startOffset="69.7267%">
<tspan  class="st3" style="font-family:'Microsoft-Yi-Baiti'; font-size:15.6722px; letter-spacing:100.3;">• </tspan><tspan  class="st3" style="font-family:'BankGothicBT-Light'; font-size:15.6722px; letter-spacing:100.3;">hep-y </tspan><tspan  class="st3" style="font-family:'Microsoft-Yi-Baiti'; font-size:15.6722px; letter-spacing:100.3;">•</tspan>	</textPath>
</text>
	<path id="SVGID_x5F_6_x5F_" class="st4" d="M332.8,139.7c-10.4,18.4-33.8,24.8-52.1,14.4c-18.3-10.4-24.7-33.8-14.3-52.1
		s33.8-24.8,52.1-14.4S343.3,121.3,332.8,139.7z"/>
	<text>	<textPath  xlink:href="#SVGID_x5F_6_x5F_" startOffset="69.7267%">
<tspan  class="st2" style="font-family:'Microsoft-Yi-Baiti'; font-size:15.6722px; letter-spacing:100.3;">• </tspan><tspan  class="st2" style="font-family:'BankGothicBT-Light'; font-size:15.6722px; letter-spacing:100.3;">hep-y </tspan><tspan  class="st2" style="font-family:'Microsoft-Yi-Baiti'; font-size:15.6722px; letter-spacing:100.3;">•</tspan>	</textPath>
</text>
	<path id="SVGID_x5F_7_x5F_" class="st4" d="M329.2,267.1c-10.5,18.3-33.9,24.7-52.2,14.2c-18.3-10.5-24.6-33.9-14.1-52.2
		c10.5-18.3,33.9-24.7,52.2-14.2S339.7,248.7,329.2,267.1z"/>
	<text>	<textPath  xlink:href="#SVGID_x5F_7_x5F_" startOffset="69.7267%">
<tspan  class="st1" style="font-family:'Microsoft-Yi-Baiti'; font-size:15.6722px; letter-spacing:100.3;">• </tspan><tspan  class="st1" style="font-family:'BankGothicBT-Light'; font-size:15.6722px; letter-spacing:100.3;">hep-y </tspan><tspan  class="st1" style="font-family:'Microsoft-Yi-Baiti'; font-size:15.6722px; letter-spacing:100.3;">•</tspan>	</textPath>
</text>
	<path id="SVGID_x5F_8_x5F_" class="st4" d="M323.4,785.7c-11.8,17.5-35.6,22.2-53.1,10.4s-22-35.6-10.2-53.1
		c11.8-17.5,35.6-22.2,53.1-10.4C330.7,744.4,335.2,768.2,323.4,785.7z"/>
	<text>	<textPath  xlink:href="#SVGID_x5F_8_x5F_" startOffset="69.7267%">
<tspan  class="st2" style="font-family:'Microsoft-Yi-Baiti'; font-size:15.6722px; letter-spacing:100.3;">• </tspan><tspan  class="st2" style="font-family:'BankGothicBT-Light'; font-size:15.6722px; letter-spacing:100.3;">hepy </tspan><tspan  class="st2" style="font-family:'Microsoft-Yi-Baiti'; font-size:15.6722px; letter-spacing:100.3;">•</tspan>	</textPath>
</text>
	<path id="SVGID_x5F_9_x5F_" class="st4" d="M329.3,601.8c-10.6,18.3-33.9,24.6-52.2,14.1c-18.3-10.5-24.5-33.9-13.9-52.2
		c10.6-18.3,33.9-24.6,52.2-14.1C333.7,560.1,339.9,583.5,329.3,601.8z"/>
	<text>	<textPath  xlink:href="#SVGID_x5F_9_x5F_" startOffset="69.7267%">
<tspan  class="st3" style="font-family:'Microsoft-Yi-Baiti'; font-size:15.6722px; letter-spacing:100.3;">• </tspan><tspan  class="st3" style="font-family:'BankGothicBT-Light'; font-size:15.6722px; letter-spacing:100.3;">hep-y </tspan><tspan  class="st3" style="font-family:'Microsoft-Yi-Baiti'; font-size:15.6722px; letter-spacing:100.3;">•</tspan>	</textPath>
</text>
	<path id="SVGID_x5F_10_x5F_" class="st4" d="M331.8,436.2c-10.5,18.3-33.9,24.7-52.2,14.2s-24.5-33.9-14-52.2
		c10.5-18.3,33.9-24.7,52.2-14.2C336.1,394.5,342.3,417.9,331.8,436.2z"/>
	<text>	<textPath  xlink:href="#SVGID_x5F_10_x5F_" startOffset="69.7267%">
<tspan  class="st3" style="font-family:'Microsoft-Yi-Baiti'; font-size:15.6722px; letter-spacing:100.3;">• </tspan><tspan  class="st3" style="font-family:'BankGothicBT-Light'; font-size:15.6722px; letter-spacing:100.3;">hep-y </tspan><tspan  class="st3" style="font-family:'Microsoft-Yi-Baiti'; font-size:15.6722px; letter-spacing:100.3;">•</tspan>	</textPath>
</text>
</g>
</svg>
