<?xml version="1.0" encoding="utf-8"?>
<!-- Generator: Adobe Illustrator 21.0.2, SVG Export Plug-In . SVG Version: 6.00 Build 0)  -->
<svg version="1.1" xmlns="http://www.w3.org/2000/svg" xmlns:xlink="http://www.w3.org/1999/xlink" x="0px" y="0px"
	 viewBox="0 0 595.3 841.9" style="enable-background:new 0 0 595.3 841.9;" xml:space="preserve">
<style type="text/css">
	.st0{fill:#013A69;}
	.st1{fill:#428ECA;}
	.st2{fill:none;}
	.st3{fill:#FFFFFF;}
	.st4{fill:none;}
</style>
<g id="_x31__x5F_P">
	<circle class="st0" cx="-930.4" cy="118.4" r="58"/>
	<circle class="st0" cx="-931.3" cy="414.8" r="58"/>
	<rect x="-1231.9" y="692.1" class="st0" width="596.9" height="150.9"/>
	<circle class="st1" cx="-315.4" cy="118.4" r="58"/>
	<circle class="st2" cx="218.6" cy="293.9" r="58"/>
	<circle class="st1" cx="-316.3" cy="414.8" r="58"/>
	<rect x="-616.9" y="692.1" class="st1" width="596.9" height="150.9"/>
</g>
<g id="_x31__x5F_R">
	<path class="st3" d="M-943.5,174.9c0.1-0.3,0.2-0.6,0.2-0.8c0.1-0.5,0.3-1,0.3-1.4c0-1.2,0-2.4,0-3.6c0-1.2-0.6-2.2-1.5-2.9
		c-0.8-0.7-1.8-1.3-2.9-1.4c-0.3,0-0.5-0.1-0.8-0.1c-3.1,0-6.1-0.8-8.8-2.3c-1.1-0.6-2-1.4-3-2.2c-1.9-1.6-3.1-3.8-4.5-5.8
		c-1.2-1.8-2.4-3.7-3.5-5.6c-0.9-1.5-1.6-3.1-2.3-4.6c-0.2-0.4-0.2-0.8,0.2-1.2c0.4-0.5,0.8-1.1,1.5-1.3c0.2-0.1,0.5-0.1,0.7,0
		c0.6,0.2,1.1,0.6,1.5,1.1c2.2,2.7,4.4,5.4,6.6,8c0.5,0.6,1,1.2,1.4,1.9c1.5,2.3,3.7,3.3,6.4,3.5c1.3,0.1,2.6,0.1,3.9,0.2
		c0.1,0,0.3,0,0.5,0c-0.2-0.1-0.3-0.2-0.4-0.3c-2.2-1.4-4.4-2.7-6.5-4.1c-0.5-0.4-1.1-0.8-1.5-1.3c-0.5-0.5-0.2-1.4,0.4-1.8
		c0.5-0.3,1-0.4,1.5-0.2c1.5,0.6,3.1,1.2,4.6,1.9c2.9,1.2,5.8,2.4,8.6,4c2.3,1.3,4.5,2.8,6.2,4.8c0.2,0.3,0.4,0.6,0.5,0.9
		c0.4,0.9,0.7,1.7,0.7,2.7c0,4.3,0,8.5,0,12.8c0,0.3,0,0.6,0,0.6c-0.3,0-1.7-0.1-2.7-0.2c-0.1,0-1-0.1-1.5-0.2
		c-1.6-0.2-2.3-0.3-3.9-0.6C-942.4,175.2-942.9,175-943.5,174.9z"/>
	<path class="st3" d="M-917.4,174.9c-0.1-0.3-0.2-0.6-0.2-0.9c-0.1-0.5-0.3-1-0.3-1.4c0-1.2,0-2.4,0-3.6c0-1.2,0.6-2.2,1.5-2.9
		c0.8-0.7,1.8-1.3,2.9-1.4c0.3,0,0.5-0.1,0.8-0.1c3.1,0,6.1-0.8,8.8-2.3c1.1-0.6,2-1.4,3-2.2c1.9-1.6,3.1-3.8,4.5-5.8
		c1.2-1.8,2.4-3.7,3.5-5.6c0.9-1.5,1.6-3.1,2.3-4.6c0.2-0.4,0.2-0.8-0.2-1.2c-0.4-0.5-0.8-1.1-1.5-1.3c-0.2-0.1-0.5-0.1-0.7,0
		c-0.6,0.2-1.1,0.6-1.5,1.1c-2.2,2.7-4.4,5.4-6.6,8c-0.5,0.6-1,1.2-1.4,1.9c-1.5,2.3-3.7,3.3-6.4,3.5c-1.3,0.1-2.6,0.1-3.9,0.2
		c-0.1,0-0.3,0-0.5,0c0.2-0.1,0.3-0.2,0.4-0.3c2.2-1.4,4.4-2.7,6.5-4.1c0.5-0.4,1.1-0.8,1.5-1.3c0.5-0.5,0.2-1.4-0.4-1.8
		c-0.5-0.3-1-0.4-1.5-0.2c-1.5,0.6-3.1,1.2-4.6,1.9c-2.9,1.2-5.8,2.4-8.6,4c-2.3,1.3-4.5,2.8-6.2,4.8c-0.2,0.3-0.4,0.6-0.5,0.9
		c-0.4,0.9-0.7,1.7-0.7,2.7c0,4.3,0,8.5,0,12.8c0,0.3,0,0.6,0.1,0.6c0.3,0,1.9-0.1,2-0.2c0,0,0.2,0,2.2-0.2c1.4-0.2,2-0.2,3.5-0.6
		C-918.8,175.3-918.1,175.1-917.4,174.9z"/>
	<path class="st0" d="M-947.1,302.1c0.1-0.3,0.2-0.6,0.2-0.8c0.1-0.5,0.3-1,0.3-1.4c0-1.2,0-2.4,0-3.6c0-1.2-0.6-2.2-1.5-2.9
		c-0.8-0.7-1.8-1.3-2.9-1.4c-0.3,0-0.5-0.1-0.8-0.1c-3.1,0-6.1-0.8-8.8-2.3c-1.1-0.6-2-1.4-3-2.2c-1.9-1.6-3.1-3.8-4.5-5.8
		c-1.2-1.8-2.4-3.7-3.5-5.6c-0.9-1.5-1.6-3.1-2.3-4.6c-0.2-0.4-0.2-0.8,0.2-1.2c0.4-0.5,0.8-1.1,1.5-1.3c0.2-0.1,0.5-0.1,0.7,0
		c0.6,0.2,1.1,0.6,1.5,1.1c2.2,2.7,4.4,5.4,6.6,8c0.5,0.6,1,1.2,1.4,1.9c1.5,2.3,3.7,3.3,6.4,3.5c1.3,0.1,2.6,0.1,3.9,0.2
		c0.1,0,0.3,0,0.5,0c-0.2-0.1-0.3-0.2-0.4-0.3c-2.2-1.4-4.4-2.7-6.5-4.1c-0.5-0.4-1.1-0.8-1.5-1.3c-0.5-0.5-0.2-1.4,0.4-1.8
		c0.5-0.3,1-0.4,1.5-0.2c1.5,0.6,3.1,1.2,4.6,1.9c2.9,1.2,5.8,2.4,8.6,4c2.3,1.3,4.5,2.8,6.2,4.8c0.2,0.3,0.4,0.6,0.5,0.9
		c0.4,0.9,0.7,1.7,0.7,2.7c0,4.3,0,8.5,0,12.8c0,0.3,0,0.6,0,0.6c-0.3,0-1.7-0.1-2.7-0.2c-0.1,0-1-0.1-1.5-0.2
		c-1.6-0.2-2.3-0.3-3.9-0.6C-946,302.4-946.5,302.2-947.1,302.1z"/>
	<path class="st0" d="M-921,302.1c-0.1-0.3-0.2-0.6-0.2-0.9c-0.1-0.5-0.3-1-0.3-1.4c0-1.2,0-2.4,0-3.6c0-1.2,0.6-2.2,1.5-2.9
		c0.8-0.7,1.8-1.3,2.9-1.4c0.3,0,0.5-0.1,0.8-0.1c3.1,0,6.1-0.8,8.8-2.3c1.1-0.6,2-1.4,3-2.2c1.9-1.6,3.1-3.8,4.5-5.8
		c1.2-1.8,2.4-3.7,3.5-5.6c0.9-1.5,1.6-3.1,2.3-4.6c0.2-0.4,0.2-0.8-0.2-1.2c-0.4-0.5-0.8-1.1-1.5-1.3c-0.2-0.1-0.5-0.1-0.7,0
		c-0.6,0.2-1.1,0.6-1.5,1.1c-2.2,2.7-4.4,5.4-6.6,8c-0.5,0.6-1,1.2-1.4,1.9c-1.5,2.3-3.7,3.3-6.4,3.5c-1.3,0.1-2.6,0.1-3.9,0.2
		c-0.1,0-0.3,0-0.5,0c0.2-0.1,0.3-0.2,0.4-0.3c2.2-1.4,4.4-2.7,6.5-4.1c0.5-0.4,1.1-0.8,1.5-1.3c0.5-0.5,0.2-1.4-0.4-1.8
		c-0.5-0.3-1-0.4-1.5-0.2c-1.5,0.6-3.1,1.2-4.6,1.9c-2.9,1.2-5.8,2.4-8.6,4c-2.3,1.3-4.5,2.8-6.2,4.8c-0.2,0.3-0.4,0.6-0.5,0.9
		c-0.4,0.9-0.7,1.7-0.7,2.7c0,4.3,0,8.5,0,12.8c0,0.3,0,0.6,0.1,0.6c0.3,0,1.9-0.1,2-0.2c0,0,0.2,0,2.2-0.2c1.4-0.2,2-0.2,3.6-0.6
		C-922.4,302.5-921.7,302.3-921,302.1z"/>
	<path class="st3" d="M-951.4,818.3c0.1-0.3,0.2-0.6,0.2-0.8c0.1-0.5,0.3-1,0.3-1.4c0-1.2,0-2.4,0-3.6c0-1.2-0.6-2.2-1.5-2.9
		c-0.8-0.7-1.8-1.3-2.9-1.4c-0.3,0-0.5-0.1-0.8-0.1c-3.1,0-6.1-0.8-8.8-2.3c-1.1-0.6-2-1.4-3-2.2c-1.9-1.6-3.1-3.8-4.5-5.8
		c-1.2-1.8-2.4-3.7-3.5-5.6c-0.9-1.5-1.6-3.1-2.3-4.6c-0.2-0.4-0.2-0.8,0.2-1.2c0.4-0.5,0.8-1.1,1.5-1.3c0.2-0.1,0.5-0.1,0.7,0
		c0.6,0.2,1.1,0.6,1.5,1.1c2.2,2.7,4.4,5.4,6.6,8c0.5,0.6,1,1.2,1.4,1.9c1.5,2.3,3.7,3.3,6.4,3.5c1.3,0.1,2.6,0.1,3.9,0.2
		c0.1,0,0.3,0,0.5,0c-0.2-0.1-0.3-0.2-0.4-0.3c-2.2-1.4-4.4-2.7-6.5-4.1c-0.5-0.4-1.1-0.8-1.5-1.3c-0.5-0.5-0.2-1.4,0.4-1.8
		c0.5-0.3,1-0.4,1.5-0.2c1.5,0.6,3.1,1.2,4.6,1.9c2.9,1.2,5.8,2.4,8.6,4c2.3,1.3,4.5,2.8,6.2,4.8c0.2,0.3,0.4,0.6,0.5,0.9
		c0.4,0.9,0.7,1.7,0.7,2.7c0,4.3,0,8.5,0,12.8c0,0.3,0,0.6,0,0.6c-0.3,0-1.7-0.1-2.7-0.2c-0.1,0-1-0.1-1.5-0.2
		c-1.6-0.2-2.3-0.3-3.9-0.6C-950.2,818.6-950.8,818.5-951.4,818.3z"/>
	<path class="st3" d="M-925.3,818.3c-0.1-0.3-0.2-0.6-0.2-0.9c-0.1-0.5-0.3-1-0.3-1.4c0-1.2,0-2.4,0-3.6c0-1.2,0.6-2.2,1.5-2.9
		c0.8-0.7,1.8-1.3,2.9-1.4c0.3,0,0.5-0.1,0.8-0.1c3.1,0,6.1-0.8,8.8-2.3c1.1-0.6,2-1.4,3-2.2c1.9-1.6,3.1-3.8,4.5-5.8
		c1.2-1.8,2.4-3.7,3.5-5.6c0.9-1.5,1.6-3.1,2.3-4.6c0.2-0.4,0.2-0.8-0.2-1.2c-0.4-0.5-0.8-1.1-1.5-1.3c-0.2-0.1-0.5-0.1-0.7,0
		c-0.6,0.2-1.1,0.6-1.5,1.1c-2.2,2.7-4.4,5.4-6.6,8c-0.5,0.6-1,1.2-1.4,1.9c-1.5,2.3-3.7,3.3-6.4,3.5c-1.3,0.1-2.6,0.1-3.9,0.2
		c-0.1,0-0.3,0-0.5,0c0.2-0.1,0.3-0.2,0.4-0.3c2.2-1.4,4.4-2.7,6.5-4.1c0.5-0.4,1.1-0.8,1.5-1.3c0.5-0.5,0.2-1.4-0.4-1.8
		c-0.5-0.3-1-0.4-1.5-0.2c-1.5,0.6-3.1,1.2-4.6,1.9c-2.9,1.2-5.8,2.4-8.6,4c-2.3,1.3-4.5,2.8-6.2,4.8c-0.2,0.3-0.4,0.6-0.5,0.9
		c-0.4,0.9-0.7,1.7-0.7,2.7c0,4.3,0,8.5,0,12.8c0,0.3,0,0.6,0.1,0.6c0.3,0,1.9-0.1,2-0.2c0,0,0.2,0,2.2-0.2c1.4-0.2,2-0.2,3.6-0.5
		C-926.7,818.7-925.9,818.5-925.3,818.3z"/>
	<path class="st2" d="M-946.9,643.9c0.1-0.3,0.2-0.6,0.2-0.8c0.1-0.5,0.3-1,0.3-1.4c0-1.2,0-2.4,0-3.6c0-1.2-0.6-2.2-1.5-2.9
		c-0.8-0.7-1.8-1.3-2.9-1.4c-0.3,0-0.5-0.1-0.8-0.1c-3.1,0-6.1-0.8-8.8-2.3c-1.1-0.6-2-1.4-3-2.2c-1.9-1.6-3.1-3.8-4.5-5.8
		c-1.2-1.8-2.4-3.7-3.5-5.6c-0.9-1.5-1.6-3.1-2.3-4.6c-0.2-0.4-0.2-0.8,0.2-1.2c0.4-0.5,0.8-1.1,1.5-1.3c0.2-0.1,0.5-0.1,0.7,0
		c0.6,0.2,1.1,0.6,1.5,1.1c2.2,2.7,4.4,5.4,6.6,8c0.5,0.6,1,1.2,1.4,1.9c1.5,2.3,3.7,3.3,6.4,3.5c1.3,0.1,2.6,0.1,3.9,0.2
		c0.1,0,0.3,0,0.5,0c-0.2-0.1-0.3-0.2-0.4-0.3c-2.2-1.4-4.4-2.7-6.5-4.1c-0.5-0.4-1.1-0.8-1.5-1.3c-0.5-0.5-0.2-1.4,0.4-1.8
		c0.5-0.3,1-0.4,1.5-0.2c1.5,0.6,3.1,1.2,4.6,1.9c2.9,1.2,5.8,2.4,8.6,4c2.3,1.3,4.5,2.8,6.2,4.8c0.2,0.3,0.4,0.6,0.5,0.9
		c0.4,0.9,0.7,1.7,0.7,2.7c0,4.3,0,8.5,0,12.8c0,0.3,0,0.6,0,0.6c-0.3,0-1.7-0.1-2.7-0.2c-0.1,0-1-0.1-1.5-0.2
		c-1.6-0.2-2.3-0.3-3.9-0.6C-945.7,644.2-946.3,644.1-946.9,643.9z"/>
	<path class="st2" d="M-920.8,644c-0.1-0.3-0.2-0.6-0.2-0.9c-0.1-0.5-0.3-1-0.3-1.4c0-1.2,0-2.4,0-3.6c0-1.2,0.6-2.2,1.5-2.9
		c0.8-0.7,1.8-1.3,2.9-1.4c0.3,0,0.5-0.1,0.8-0.1c3.1,0,6.1-0.8,8.8-2.3c1.1-0.6,2-1.4,3-2.2c1.9-1.6,3.1-3.8,4.5-5.8
		c1.2-1.8,2.4-3.7,3.5-5.6c0.9-1.5,1.6-3.1,2.3-4.6c0.2-0.4,0.2-0.8-0.2-1.2c-0.4-0.5-0.8-1.1-1.5-1.3c-0.2-0.1-0.5-0.1-0.7,0
		c-0.6,0.2-1.1,0.6-1.5,1.1c-2.2,2.7-4.4,5.4-6.6,8c-0.5,0.6-1,1.2-1.4,1.9c-1.5,2.3-3.7,3.3-6.4,3.5c-1.3,0.1-2.6,0.1-3.9,0.2
		c-0.1,0-0.3,0-0.5,0c0.2-0.1,0.3-0.2,0.4-0.3c2.2-1.4,4.4-2.7,6.5-4.1c0.5-0.4,1.1-0.8,1.5-1.3c0.5-0.5,0.2-1.4-0.4-1.8
		c-0.5-0.3-1-0.4-1.5-0.2c-1.5,0.6-3.1,1.2-4.6,1.9c-2.9,1.2-5.8,2.4-8.6,4c-2.3,1.3-4.5,2.8-6.2,4.8c-0.2,0.3-0.4,0.6-0.5,0.9
		c-0.4,0.9-0.7,1.7-0.7,2.7c0,4.3,0,8.5,0,12.8c0,0.3,0,0.6,0.1,0.6c0.3,0,1.9-0.1,2-0.2c0,0,0.2,0,2.2-0.2c1.4-0.2,2-0.2,3.5-0.6
		C-922.2,644.4-921.4,644.1-920.8,644z"/>
	<path class="st2" d="M-944.5,471.2c0.1-0.3,0.2-0.6,0.2-0.8c0.1-0.5,0.3-1,0.3-1.4c0-1.2,0-2.4,0-3.6c0-1.2-0.6-2.2-1.5-2.9
		c-0.8-0.7-1.8-1.3-2.9-1.4c-0.3,0-0.5-0.1-0.8-0.1c-3.1,0-6.1-0.8-8.8-2.3c-1.1-0.6-2-1.4-3-2.2c-1.9-1.6-3.1-3.8-4.5-5.8
		c-1.2-1.8-2.4-3.7-3.5-5.6c-0.9-1.5-1.6-3.1-2.3-4.6c-0.2-0.4-0.2-0.8,0.2-1.2c0.4-0.5,0.8-1.1,1.5-1.3c0.2-0.1,0.5-0.1,0.7,0
		c0.6,0.2,1.1,0.6,1.5,1.1c2.2,2.7,4.4,5.4,6.6,8c0.5,0.6,1,1.2,1.4,1.9c1.5,2.3,3.7,3.3,6.4,3.5c1.3,0.1,2.6,0.1,3.9,0.2
		c0.1,0,0.3,0,0.5,0c-0.2-0.1-0.3-0.2-0.4-0.3c-2.2-1.4-4.4-2.7-6.5-4.1c-0.5-0.4-1.1-0.8-1.5-1.3c-0.5-0.5-0.2-1.4,0.4-1.8
		c0.5-0.3,1-0.4,1.5-0.2c1.5,0.6,3.1,1.2,4.6,1.9c2.9,1.2,5.8,2.4,8.6,4c2.3,1.3,4.5,2.8,6.2,4.8c0.2,0.3,0.4,0.6,0.5,0.9
		c0.4,0.9,0.7,1.7,0.7,2.7c0,4.3,0,8.5,0,12.8c0,0.3,0,0.6,0,0.6c-0.3,0-1.7-0.1-2.7-0.2c-0.1,0-1-0.1-1.5-0.2
		c-1.6-0.2-2.3-0.3-3.9-0.6C-943.3,471.5-943.8,471.4-944.5,471.2z"/>
	<path class="st2" d="M-918.4,471.2c-0.1-0.3-0.2-0.6-0.2-0.9c-0.1-0.5-0.3-1-0.3-1.4c0-1.2,0-2.4,0-3.6c0-1.2,0.6-2.2,1.5-2.9
		c0.8-0.7,1.8-1.3,2.9-1.4c0.3,0,0.5-0.1,0.8-0.1c3.1,0,6.1-0.8,8.8-2.3c1.1-0.6,2-1.4,3-2.2c1.9-1.6,3.1-3.8,4.5-5.8
		c1.2-1.8,2.4-3.7,3.5-5.6c0.9-1.5,1.6-3.1,2.3-4.6c0.2-0.4,0.2-0.8-0.2-1.2c-0.4-0.5-0.8-1.1-1.5-1.3c-0.2-0.1-0.5-0.1-0.7,0
		c-0.6,0.2-1.1,0.6-1.5,1.1c-2.2,2.7-4.4,5.4-6.6,8c-0.5,0.6-1,1.2-1.4,1.9c-1.5,2.3-3.7,3.3-6.4,3.5c-1.3,0.1-2.6,0.1-3.9,0.2
		c-0.1,0-0.3,0-0.5,0c0.2-0.1,0.3-0.2,0.4-0.3c2.2-1.4,4.4-2.7,6.5-4.1c0.5-0.4,1.1-0.8,1.5-1.3c0.5-0.5,0.2-1.4-0.4-1.8
		c-0.5-0.3-1-0.4-1.5-0.2c-1.5,0.6-3.1,1.2-4.6,1.9c-2.9,1.2-5.8,2.4-8.6,4c-2.3,1.3-4.5,2.8-6.2,4.8c-0.2,0.3-0.4,0.6-0.5,0.9
		c-0.4,0.9-0.7,1.7-0.7,2.7c0,4.3,0,8.5,0,12.8c0,0.3,0,0.6,0.1,0.6c0.3,0,1.9-0.1,2-0.2c0,0,0.2,0,2.2-0.2c1.4-0.2,2-0.2,3.5-0.5
		C-919.8,471.6-919,471.4-918.4,471.2z"/>
	<path class="st3" d="M-328.6,174.9c0.1-0.3,0.2-0.6,0.2-0.8c0.1-0.5,0.3-1,0.3-1.4c0-1.2,0-2.4,0-3.6c0-1.2-0.6-2.2-1.5-2.9
		c-0.8-0.7-1.8-1.3-2.9-1.4c-0.3,0-0.5-0.1-0.8-0.1c-3.1,0-6.1-0.8-8.8-2.3c-1.1-0.6-2-1.4-3-2.2c-1.9-1.6-3.1-3.8-4.5-5.8
		c-1.2-1.8-2.4-3.7-3.5-5.6c-0.9-1.5-1.6-3.1-2.3-4.6c-0.2-0.4-0.2-0.8,0.2-1.2c0.4-0.5,0.8-1.1,1.5-1.3c0.2-0.1,0.5-0.1,0.7,0
		c0.6,0.2,1.1,0.6,1.5,1.1c2.2,2.7,4.4,5.4,6.6,8c0.5,0.6,1,1.2,1.4,1.9c1.5,2.3,3.7,3.3,6.4,3.5c1.3,0.1,2.6,0.1,3.9,0.2
		c0.1,0,0.3,0,0.5,0c-0.2-0.1-0.3-0.2-0.4-0.3c-2.2-1.4-4.4-2.7-6.5-4.1c-0.5-0.4-1.1-0.8-1.5-1.3c-0.5-0.5-0.2-1.4,0.4-1.8
		c0.5-0.3,1-0.4,1.5-0.2c1.5,0.6,3.1,1.2,4.6,1.9c2.9,1.2,5.8,2.4,8.6,4c2.3,1.3,4.5,2.8,6.2,4.8c0.2,0.3,0.4,0.6,0.5,0.9
		c0.4,0.9,0.7,1.7,0.7,2.7c0,4.3,0,8.5,0,12.8c0,0.3,0,0.6,0,0.6c-0.3,0-1.7-0.1-2.7-0.2c-0.1,0-1-0.1-1.5-0.2
		c-1.6-0.2-2.3-0.3-3.9-0.6C-327.4,175.2-327.9,175-328.6,174.9z"/>
	<path class="st3" d="M-302.5,174.9c-0.1-0.3-0.2-0.6-0.2-0.9c-0.1-0.5-0.3-1-0.3-1.4c0-1.2,0-2.4,0-3.6c0-1.2,0.6-2.2,1.5-2.9
		c0.8-0.7,1.8-1.3,2.9-1.4c0.3,0,0.5-0.1,0.8-0.1c3.1,0,6.1-0.8,8.8-2.3c1.1-0.6,2-1.4,3-2.2c1.9-1.6,3.1-3.8,4.5-5.8
		c1.2-1.8,2.4-3.7,3.5-5.6c0.9-1.5,1.6-3.1,2.3-4.6c0.2-0.4,0.2-0.8-0.2-1.2c-0.4-0.5-0.8-1.1-1.5-1.3c-0.2-0.1-0.5-0.1-0.7,0
		c-0.6,0.2-1.1,0.6-1.5,1.1c-2.2,2.7-4.4,5.4-6.6,8c-0.5,0.6-1,1.2-1.4,1.9c-1.5,2.3-3.7,3.3-6.4,3.5c-1.3,0.1-2.6,0.1-3.9,0.2
		c-0.1,0-0.3,0-0.5,0c0.2-0.1,0.3-0.2,0.4-0.3c2.2-1.4,4.4-2.7,6.5-4.1c0.5-0.4,1.1-0.8,1.5-1.3c0.5-0.5,0.2-1.4-0.4-1.8
		c-0.5-0.3-1-0.4-1.5-0.2c-1.5,0.6-3.1,1.2-4.6,1.9c-2.9,1.2-5.8,2.4-8.6,4c-2.3,1.3-4.5,2.8-6.2,4.8c-0.2,0.3-0.4,0.6-0.5,0.9
		c-0.4,0.9-0.7,1.7-0.7,2.7c0,4.3,0,8.5,0,12.8c0,0.3,0,0.6,0.1,0.6c0.3,0,1.9-0.1,2-0.2c0,0,0.2,0,2.2-0.2c1.4-0.2,2-0.2,3.6-0.6
		C-303.9,175.3-303.1,175.1-302.5,174.9z"/>
	<path class="st3" d="M205.4,350.4c0.1-0.3,0.2-0.6,0.2-0.8c0.1-0.5,0.3-1,0.3-1.4c0-1.2,0-2.4,0-3.6c0-1.2-0.6-2.2-1.5-2.9
		c-0.8-0.7-1.8-1.3-2.9-1.4c-0.3,0-0.5-0.1-0.8-0.1c-3.1,0-6.1-0.8-8.8-2.3c-1.1-0.6-2-1.4-3-2.2c-1.9-1.6-3.1-3.8-4.5-5.8
		c-1.2-1.8-2.4-3.7-3.5-5.6c-0.9-1.5-1.6-3.1-2.3-4.6c-0.2-0.4-0.2-0.8,0.2-1.2c0.4-0.5,0.8-1.1,1.5-1.3c0.2-0.1,0.5-0.1,0.7,0
		c0.6,0.2,1.1,0.6,1.5,1.1c2.2,2.7,4.4,5.4,6.6,8c0.5,0.6,1,1.2,1.4,1.9c1.5,2.3,3.7,3.3,6.4,3.5c1.3,0.1,2.6,0.1,3.9,0.2
		c0.1,0,0.3,0,0.5,0c-0.2-0.1-0.3-0.2-0.4-0.3c-2.2-1.4-4.4-2.7-6.5-4.1c-0.5-0.4-1.1-0.8-1.5-1.3c-0.5-0.5-0.2-1.4,0.4-1.8
		c0.5-0.3,1-0.4,1.5-0.2c1.5,0.6,3.1,1.2,4.6,1.9c2.9,1.2,5.8,2.4,8.6,4c2.3,1.3,4.5,2.8,6.2,4.8c0.2,0.3,0.4,0.6,0.5,0.9
		c0.4,0.9,0.7,1.7,0.7,2.7c0,4.3,0,8.5,0,12.8c0,0.3,0,0.6,0,0.6c-0.3,0-1.7-0.1-2.7-0.2c-0.1,0-1-0.1-1.5-0.2
		c-1.6-0.2-2.3-0.3-3.9-0.6C206.6,350.7,206,350.5,205.4,350.4z"/>
	<path class="st3" d="M231.5,350.4c-0.1-0.3-0.2-0.6-0.2-0.9c-0.1-0.5-0.3-1-0.3-1.4c0-1.2,0-2.4,0-3.6c0-1.2,0.6-2.2,1.5-2.9
		c0.8-0.7,1.8-1.3,2.9-1.4c0.3,0,0.5-0.1,0.8-0.1c3.1,0,6.1-0.8,8.8-2.3c1.1-0.6,2-1.4,3-2.2c1.9-1.6,3.1-3.8,4.5-5.8
		c1.2-1.8,2.4-3.7,3.5-5.6c0.9-1.5,1.6-3.1,2.3-4.6c0.2-0.4,0.2-0.8-0.2-1.2c-0.4-0.5-0.8-1.1-1.5-1.3c-0.2-0.1-0.5-0.1-0.7,0
		c-0.6,0.2-1.1,0.6-1.5,1.1c-2.2,2.7-4.4,5.4-6.6,8c-0.5,0.6-1,1.2-1.4,1.9c-1.5,2.3-3.7,3.3-6.4,3.5c-1.3,0.1-2.6,0.1-3.9,0.2
		c-0.1,0-0.3,0-0.5,0c0.2-0.1,0.3-0.2,0.4-0.3c2.2-1.4,4.4-2.7,6.5-4.1c0.5-0.4,1.1-0.8,1.5-1.3c0.5-0.5,0.2-1.4-0.4-1.8
		c-0.5-0.3-1-0.4-1.5-0.2c-1.5,0.6-3.1,1.2-4.6,1.9c-2.9,1.2-5.8,2.4-8.6,4c-2.3,1.3-4.5,2.8-6.2,4.8c-0.2,0.3-0.4,0.6-0.5,0.9
		c-0.4,0.9-0.7,1.7-0.7,2.7c0,4.3,0,8.5,0,12.8c0,0.3,0,0.6,0.1,0.6c0.3,0,1.9-0.1,2-0.2c0,0,0.2,0,2.2-0.2c1.4-0.2,2-0.2,3.5-0.6
		C230.1,350.8,230.9,350.6,231.5,350.4z"/>
	<path class="st1" d="M-332.2,302.1c0.1-0.3,0.2-0.6,0.2-0.8c0.1-0.5,0.3-1,0.3-1.4c0-1.2,0-2.4,0-3.6c0-1.2-0.6-2.2-1.5-2.9
		c-0.8-0.7-1.8-1.3-2.9-1.4c-0.3,0-0.5-0.1-0.8-0.1c-3.1,0-6.1-0.8-8.8-2.3c-1.1-0.6-2-1.4-3-2.2c-1.9-1.6-3.1-3.8-4.5-5.8
		c-1.2-1.8-2.4-3.7-3.5-5.6c-0.9-1.5-1.6-3.1-2.3-4.6c-0.2-0.4-0.2-0.8,0.2-1.2c0.4-0.5,0.8-1.1,1.5-1.3c0.2-0.1,0.5-0.1,0.7,0
		c0.6,0.2,1.1,0.6,1.5,1.1c2.2,2.7,4.4,5.4,6.6,8c0.5,0.6,1,1.2,1.4,1.9c1.5,2.3,3.7,3.3,6.4,3.5c1.3,0.1,2.6,0.1,3.9,0.2
		c0.1,0,0.3,0,0.5,0c-0.2-0.1-0.3-0.2-0.4-0.3c-2.2-1.4-4.4-2.7-6.5-4.1c-0.5-0.4-1.1-0.8-1.5-1.3c-0.5-0.5-0.2-1.4,0.4-1.8
		c0.5-0.3,1-0.4,1.5-0.2c1.5,0.6,3.1,1.2,4.6,1.9c2.9,1.2,5.8,2.4,8.6,4c2.3,1.3,4.5,2.8,6.2,4.8c0.2,0.3,0.4,0.6,0.5,0.9
		c0.4,0.9,0.7,1.7,0.7,2.7c0,4.3,0,8.5,0,12.8c0,0.3,0,0.6,0,0.6c-0.3,0-1.7-0.1-2.7-0.2c-0.1,0-1-0.1-1.5-0.2
		c-1.6-0.2-2.3-0.3-3.9-0.6C-331,302.4-331.5,302.2-332.2,302.1z"/>
	<path class="st1" d="M-306.1,302.1c-0.1-0.3-0.2-0.6-0.2-0.9c-0.1-0.5-0.3-1-0.3-1.4c0-1.2,0-2.4,0-3.6c0-1.2,0.6-2.2,1.5-2.9
		c0.8-0.7,1.8-1.3,2.9-1.4c0.3,0,0.5-0.1,0.8-0.1c3.1,0,6.1-0.8,8.8-2.3c1.1-0.6,2-1.4,3-2.2c1.9-1.6,3.1-3.8,4.5-5.8
		c1.2-1.8,2.4-3.7,3.5-5.6c0.9-1.5,1.6-3.1,2.3-4.6c0.2-0.4,0.2-0.8-0.2-1.2c-0.4-0.5-0.8-1.1-1.5-1.3c-0.2-0.1-0.5-0.1-0.7,0
		c-0.6,0.2-1.1,0.6-1.5,1.1c-2.2,2.7-4.4,5.4-6.6,8c-0.5,0.6-1,1.2-1.4,1.9c-1.5,2.3-3.7,3.3-6.4,3.5c-1.3,0.1-2.6,0.1-3.9,0.2
		c-0.1,0-0.3,0-0.5,0c0.2-0.1,0.3-0.2,0.4-0.3c2.2-1.4,4.4-2.7,6.5-4.1c0.5-0.4,1.1-0.8,1.5-1.3c0.5-0.5,0.2-1.4-0.4-1.8
		c-0.5-0.3-1-0.4-1.5-0.2c-1.5,0.6-3.1,1.2-4.6,1.9c-2.9,1.2-5.8,2.4-8.6,4c-2.3,1.3-4.5,2.8-6.2,4.8c-0.2,0.3-0.4,0.6-0.5,0.9
		c-0.4,0.9-0.7,1.7-0.7,2.7c0,4.3,0,8.5,0,12.8c0,0.3,0,0.6,0.1,0.6c0.3,0,1.9-0.1,2-0.2c0,0,0.2,0,2.2-0.2c1.4-0.2,2-0.2,3.6-0.6
		C-307.5,302.5-306.7,302.3-306.1,302.1z"/>
	<path class="st3" d="M-336.4,818.3c0.1-0.3,0.2-0.6,0.2-0.8c0.1-0.5,0.3-1,0.3-1.4c0-1.2,0-2.4,0-3.6c0-1.2-0.6-2.2-1.5-2.9
		c-0.8-0.7-1.8-1.3-2.9-1.4c-0.3,0-0.5-0.1-0.8-0.1c-3.1,0-6.1-0.8-8.8-2.3c-1.1-0.6-2-1.4-3-2.2c-1.9-1.6-3.1-3.8-4.5-5.8
		c-1.2-1.8-2.4-3.7-3.5-5.6c-0.9-1.5-1.6-3.1-2.3-4.6c-0.2-0.4-0.2-0.8,0.2-1.2c0.4-0.5,0.8-1.1,1.5-1.3c0.2-0.1,0.5-0.1,0.7,0
		c0.6,0.2,1.1,0.6,1.5,1.1c2.2,2.7,4.4,5.4,6.6,8c0.5,0.6,1,1.2,1.4,1.9c1.5,2.3,3.7,3.3,6.4,3.5c1.3,0.1,2.6,0.1,3.9,0.2
		c0.1,0,0.3,0,0.5,0c-0.2-0.1-0.3-0.2-0.4-0.3c-2.2-1.4-4.4-2.7-6.5-4.1c-0.5-0.4-1.1-0.8-1.5-1.3c-0.5-0.5-0.2-1.4,0.4-1.8
		c0.5-0.3,1-0.4,1.5-0.2c1.5,0.6,3.1,1.2,4.6,1.9c2.9,1.2,5.8,2.4,8.6,4c2.3,1.3,4.5,2.8,6.2,4.8c0.2,0.3,0.4,0.6,0.5,0.9
		c0.4,0.9,0.7,1.7,0.7,2.7c0,4.3,0,8.5,0,12.8c0,0.3,0,0.6,0,0.6c-0.3,0-1.7-0.1-2.7-0.2c-0.1,0-1-0.1-1.5-0.2
		c-1.6-0.2-2.3-0.3-3.9-0.6C-335.3,818.6-335.8,818.5-336.4,818.3z"/>
	<path class="st3" d="M-310.3,818.3c-0.1-0.3-0.2-0.6-0.2-0.9c-0.1-0.5-0.3-1-0.3-1.4c0-1.2,0-2.4,0-3.6c0-1.2,0.6-2.2,1.5-2.9
		c0.8-0.7,1.8-1.3,2.9-1.4c0.3,0,0.5-0.1,0.8-0.1c3.1,0,6.1-0.8,8.8-2.3c1.1-0.6,2-1.4,3-2.2c1.9-1.6,3.1-3.8,4.5-5.8
		c1.2-1.8,2.4-3.7,3.5-5.6c0.9-1.5,1.6-3.1,2.3-4.6c0.2-0.4,0.2-0.8-0.2-1.2c-0.4-0.5-0.8-1.1-1.5-1.3c-0.2-0.1-0.5-0.1-0.7,0
		c-0.6,0.2-1.1,0.6-1.5,1.1c-2.2,2.7-4.4,5.4-6.6,8c-0.5,0.6-1,1.2-1.4,1.9c-1.5,2.3-3.7,3.3-6.4,3.5c-1.3,0.1-2.6,0.1-3.9,0.2
		c-0.1,0-0.3,0-0.5,0c0.2-0.1,0.3-0.2,0.4-0.3c2.2-1.4,4.4-2.7,6.5-4.1c0.5-0.4,1.1-0.8,1.5-1.3c0.5-0.5,0.2-1.4-0.4-1.8
		c-0.5-0.3-1-0.4-1.5-0.2c-1.5,0.6-3.1,1.2-4.6,1.9c-2.9,1.2-5.8,2.4-8.6,4c-2.3,1.3-4.5,2.8-6.2,4.8c-0.2,0.3-0.4,0.6-0.5,0.9
		c-0.4,0.9-0.7,1.7-0.7,2.7c0,4.3,0,8.5,0,12.8c0,0.3,0,0.6,0.1,0.6c0.3,0,1.9-0.1,2-0.2c0,0,0.2,0,2.2-0.2c1.4-0.2,2-0.2,3.5-0.5
		C-311.7,818.7-311,818.5-310.3,818.3z"/>
	<path class="st2" d="M-331.9,643.9c0.1-0.3,0.2-0.6,0.2-0.8c0.1-0.5,0.3-1,0.3-1.4c0-1.2,0-2.4,0-3.6c0-1.2-0.6-2.2-1.5-2.9
		c-0.8-0.7-1.8-1.3-2.9-1.4c-0.3,0-0.5-0.1-0.8-0.1c-3.1,0-6.1-0.8-8.8-2.3c-1.1-0.6-2-1.4-3-2.2c-1.9-1.6-3.1-3.8-4.5-5.8
		c-1.2-1.8-2.4-3.7-3.5-5.6c-0.9-1.5-1.6-3.1-2.3-4.6c-0.2-0.4-0.2-0.8,0.2-1.2c0.4-0.5,0.8-1.1,1.5-1.3c0.2-0.1,0.5-0.1,0.7,0
		c0.6,0.2,1.1,0.6,1.5,1.1c2.2,2.7,4.4,5.4,6.6,8c0.5,0.6,1,1.2,1.4,1.9c1.5,2.3,3.7,3.3,6.4,3.5c1.3,0.1,2.6,0.1,3.9,0.2
		c0.1,0,0.3,0,0.5,0c-0.2-0.1-0.3-0.2-0.4-0.3c-2.2-1.4-4.4-2.7-6.5-4.1c-0.5-0.4-1.1-0.8-1.5-1.3c-0.5-0.5-0.2-1.4,0.4-1.8
		c0.5-0.3,1-0.4,1.5-0.2c1.5,0.6,3.1,1.2,4.6,1.9c2.9,1.2,5.8,2.4,8.6,4c2.3,1.3,4.5,2.8,6.2,4.8c0.2,0.3,0.4,0.6,0.5,0.9
		c0.4,0.9,0.7,1.7,0.7,2.7c0,4.3,0,8.5,0,12.8c0,0.3,0,0.6,0,0.6c-0.3,0-1.7-0.1-2.7-0.2c-0.1,0-1-0.1-1.5-0.2
		c-1.6-0.2-2.3-0.3-3.9-0.6C-330.8,644.2-331.3,644.1-331.9,643.9z"/>
	<path class="st2" d="M-305.8,644c-0.1-0.3-0.2-0.6-0.2-0.9c-0.1-0.5-0.3-1-0.3-1.4c0-1.2,0-2.4,0-3.6c0-1.2,0.6-2.2,1.5-2.9
		c0.8-0.7,1.8-1.3,2.9-1.4c0.3,0,0.5-0.1,0.8-0.1c3.1,0,6.1-0.8,8.8-2.3c1.1-0.6,2-1.4,3-2.2c1.9-1.6,3.1-3.8,4.5-5.8
		c1.2-1.8,2.4-3.7,3.5-5.6c0.9-1.5,1.6-3.1,2.3-4.6c0.2-0.4,0.2-0.8-0.2-1.2c-0.4-0.5-0.8-1.1-1.5-1.3c-0.2-0.1-0.5-0.1-0.7,0
		c-0.6,0.2-1.1,0.6-1.5,1.1c-2.2,2.7-4.4,5.4-6.6,8c-0.5,0.6-1,1.2-1.4,1.9c-1.5,2.3-3.7,3.3-6.4,3.5c-1.3,0.1-2.6,0.1-3.9,0.2
		c-0.1,0-0.3,0-0.5,0c0.2-0.1,0.3-0.2,0.4-0.3c2.2-1.4,4.4-2.7,6.5-4.1c0.5-0.4,1.1-0.8,1.5-1.3c0.5-0.5,0.2-1.4-0.4-1.8
		c-0.5-0.3-1-0.4-1.5-0.2c-1.5,0.6-3.1,1.2-4.6,1.9c-2.9,1.2-5.8,2.4-8.6,4c-2.3,1.3-4.5,2.8-6.2,4.8c-0.2,0.3-0.4,0.6-0.5,0.9
		c-0.4,0.9-0.7,1.7-0.7,2.7c0,4.3,0,8.5,0,12.8c0,0.3,0,0.6,0.1,0.6c0.3,0,1.9-0.1,2-0.2c0,0,0.2,0,2.2-0.2c1.4-0.2,2-0.2,3.5-0.6
		C-307.2,644.4-306.5,644.1-305.8,644z"/>
	<path class="st2" d="M-329.5,471.2c0.1-0.3,0.2-0.6,0.2-0.8c0.1-0.5,0.3-1,0.3-1.4c0-1.2,0-2.4,0-3.6c0-1.2-0.6-2.2-1.5-2.9
		c-0.8-0.7-1.8-1.3-2.9-1.4c-0.3,0-0.5-0.1-0.8-0.1c-3.1,0-6.1-0.8-8.8-2.3c-1.1-0.6-2-1.4-3-2.2c-1.9-1.6-3.1-3.8-4.5-5.8
		c-1.2-1.8-2.4-3.7-3.5-5.6c-0.9-1.5-1.6-3.1-2.3-4.6c-0.2-0.4-0.2-0.8,0.2-1.2c0.4-0.5,0.8-1.1,1.5-1.3c0.2-0.1,0.5-0.1,0.7,0
		c0.6,0.2,1.1,0.6,1.5,1.1c2.2,2.7,4.4,5.4,6.6,8c0.5,0.6,1,1.2,1.4,1.9c1.5,2.3,3.7,3.3,6.4,3.5c1.3,0.1,2.6,0.1,3.9,0.2
		c0.1,0,0.3,0,0.5,0c-0.2-0.1-0.3-0.2-0.4-0.3c-2.2-1.4-4.4-2.7-6.5-4.1c-0.5-0.4-1.1-0.8-1.5-1.3c-0.5-0.5-0.2-1.4,0.4-1.8
		c0.5-0.3,1-0.4,1.5-0.2c1.5,0.6,3.1,1.2,4.6,1.9c2.9,1.2,5.8,2.4,8.6,4c2.3,1.3,4.5,2.8,6.2,4.8c0.2,0.3,0.4,0.6,0.5,0.9
		c0.4,0.9,0.7,1.7,0.7,2.7c0,4.3,0,8.5,0,12.8c0,0.3,0,0.6,0,0.6c-0.3,0-1.7-0.1-2.7-0.2c-0.1,0-1-0.1-1.5-0.2
		c-1.6-0.2-2.3-0.3-3.9-0.6C-328.3,471.5-328.9,471.4-329.5,471.2z"/>
	<path class="st2" d="M-303.4,471.2c-0.1-0.3-0.2-0.6-0.2-0.9c-0.1-0.5-0.3-1-0.3-1.4c0-1.2,0-2.4,0-3.6c0-1.2,0.6-2.2,1.5-2.9
		c0.8-0.7,1.8-1.3,2.9-1.4c0.3,0,0.5-0.1,0.8-0.1c3.1,0,6.1-0.8,8.8-2.3c1.1-0.6,2-1.4,3-2.2c1.9-1.6,3.1-3.8,4.5-5.8
		c1.2-1.8,2.4-3.7,3.5-5.6c0.9-1.5,1.6-3.1,2.3-4.6c0.2-0.4,0.2-0.8-0.2-1.2c-0.4-0.5-0.8-1.1-1.5-1.3c-0.2-0.1-0.5-0.1-0.7,0
		c-0.6,0.2-1.1,0.6-1.5,1.1c-2.2,2.7-4.4,5.4-6.6,8c-0.5,0.6-1,1.2-1.4,1.9c-1.5,2.3-3.7,3.3-6.4,3.5c-1.3,0.1-2.6,0.1-3.9,0.2
		c-0.1,0-0.3,0-0.5,0c0.2-0.1,0.3-0.2,0.4-0.3c2.2-1.4,4.4-2.7,6.5-4.1c0.5-0.4,1.1-0.8,1.5-1.3c0.5-0.5,0.2-1.4-0.4-1.8
		c-0.5-0.3-1-0.4-1.5-0.2c-1.5,0.6-3.1,1.2-4.6,1.9c-2.9,1.2-5.8,2.4-8.6,4c-2.3,1.3-4.5,2.8-6.2,4.8c-0.2,0.3-0.4,0.6-0.5,0.9
		c-0.4,0.9-0.7,1.7-0.7,2.7c0,4.3,0,8.5,0,12.8c0,0.3,0,0.6,0.1,0.6c0.3,0,1.9-0.1,2-0.2c0,0,0.2,0,2.2-0.2c1.4-0.2,2-0.2,3.6-0.5
		C-304.8,471.6-304,471.4-303.4,471.2z"/>
</g>
<g id="_x31__x5F_J">
	<path class="st3" d="M-964,124.5c0-4.3,0.5-8,1.1-11.8c1.9-11.4,8.7-17.7,20.2-17.5c11.1,0.2,22.2,1.5,33.3,2.4
		c3.7,0.3,7.5,0.6,11.2,1.6c4.3,1.1,5.7,4.4,3,7.9c-6.7,8.5-14.5,15.8-26.3,16.1c-3.4,0.1-5.6,1.5-8.2,3.3c-8.2,5.7-16.7,11-25.3,16
		c-4.1,2.4-6.9,0.7-7.6-4.2C-963.3,133.5-963.8,129.7-964,124.5z M-930,115.9c-1.4,1.9-3,3.8-4.3,5.9c-4,6.4-10,9.7-17.2,11.3
		c-1.6,0.3-3.3,0.4-4.8,1.1c-1.1,0.5-1.9,1.7-2.9,2.6c1.3,0.6,2.9,2,3.9,1.6C-944.1,134.1-933.2,129.5-930,115.9z M-928.3,120.3
		c2.1,0,3.5,0,4.3,0c-0.2-3.3-0.4-6.5-0.6-9.7c-0.2-0.1-0.4-0.1-0.6-0.2C-926.2,113.6-927.2,116.7-928.3,120.3z"/>
	<path class="st0" d="M-967.6,251.6c0-4.3,0.5-8,1.1-11.8c1.9-11.4,8.7-17.7,20.2-17.5c11.1,0.2,22.2,1.5,33.3,2.4
		c3.7,0.3,7.5,0.6,11.2,1.6c4.3,1.1,5.7,4.4,3,7.9c-6.7,8.5-14.5,15.8-26.3,16.1c-3.4,0.1-5.6,1.5-8.2,3.3c-8.2,5.7-16.7,11-25.3,16
		c-4.1,2.4-6.9,0.7-7.6-4.2C-966.9,260.7-967.4,256.9-967.6,251.6z M-933.6,243.1c-1.4,1.9-3,3.8-4.3,5.9c-4,6.4-10,9.7-17.2,11.3
		c-1.6,0.3-3.3,0.4-4.8,1.1c-1.1,0.5-1.9,1.7-2.9,2.6c1.3,0.6,2.9,2,3.9,1.6C-947.7,261.3-936.8,256.7-933.6,243.1z M-931.9,247.5
		c2.1,0,3.5,0,4.3,0c-0.2-3.3-0.4-6.5-0.6-9.7c-0.2-0.1-0.4-0.1-0.6-0.2C-929.8,240.8-930.8,243.9-931.9,247.5z"/>
	<path class="st3" d="M-971.8,767.9c0-4.3,0.5-8,1.1-11.8c1.9-11.4,8.7-17.7,20.2-17.5c11.1,0.2,22.2,1.5,33.3,2.4
		c3.7,0.3,7.5,0.6,11.2,1.6c4.3,1.1,5.7,4.4,3,7.9c-6.7,8.5-14.5,15.8-26.3,16.1c-3.4,0.1-5.6,1.5-8.2,3.3c-8.2,5.7-16.7,11-25.3,16
		c-4.1,2.4-6.9,0.7-7.6-4.2C-971.2,776.9-971.6,773.1-971.8,767.9z M-937.9,759.3c-1.4,1.9-3,3.8-4.3,5.9c-4,6.4-10,9.7-17.2,11.3
		c-1.6,0.3-3.3,0.4-4.8,1.1c-1.1,0.5-1.9,1.7-2.9,2.6c1.3,0.6,2.9,2,3.9,1.6C-952,777.5-941,772.9-937.9,759.3z M-936.2,763.8
		c2.1,0,3.5,0,4.3,0c-0.2-3.3-0.4-6.5-0.6-9.7c-0.2-0.1-0.4-0.1-0.6-0.2C-934,757-935,760.1-936.2,763.8z"/>
	<path class="st2" d="M-967.3,586.3c0-4.3,0.5-8,1.1-11.8c1.9-11.4,8.7-17.7,20.2-17.5c11.1,0.2,22.2,1.5,33.3,2.4
		c3.7,0.3,7.5,0.6,11.2,1.6c4.3,1.1,5.7,4.4,3,7.9c-6.7,8.5-14.5,15.8-26.3,16.1c-3.4,0.1-5.6,1.5-8.2,3.3c-8.2,5.7-16.7,11-25.3,16
		c-4.1,2.4-6.9,0.7-7.6-4.2C-966.7,595.3-967.1,591.6-967.3,586.3z M-933.4,577.7c-1.4,1.9-3,3.8-4.3,5.9c-4,6.4-10,9.7-17.2,11.3
		c-1.6,0.3-3.3,0.4-4.8,1.1c-1.1,0.5-1.9,1.7-2.9,2.6c1.3,0.6,2.9,2,3.9,1.6C-947.5,595.9-936.5,591.3-933.4,577.7z M-931.7,582.2
		c2.1,0,3.5,0,4.3,0c-0.2-3.3-0.4-6.5-0.6-9.7c-0.2-0.1-0.4-0.1-0.6-0.2C-929.5,575.4-930.5,578.5-931.7,582.2z"/>
	<path class="st2" d="M-964.9,420.8c0-4.3,0.5-8,1.1-11.8c1.9-11.4,8.7-17.7,20.2-17.5c11.1,0.2,22.2,1.5,33.3,2.4
		c3.7,0.3,7.5,0.6,11.2,1.6c4.3,1.1,5.7,4.4,3,7.9c-6.7,8.5-14.5,15.8-26.3,16.1c-3.4,0.1-5.6,1.5-8.2,3.3c-8.2,5.7-16.7,11-25.3,16
		c-4.1,2.4-6.9,0.7-7.6-4.2C-964.3,429.8-964.7,426-964.9,420.8z M-931,412.2c-1.4,1.9-3,3.8-4.3,5.9c-4,6.4-10,9.7-17.2,11.3
		c-1.6,0.3-3.3,0.4-4.8,1.1c-1.1,0.5-1.9,1.7-2.9,2.6c1.3,0.6,2.9,2,3.9,1.6C-945.1,430.4-934.1,425.8-931,412.2z M-929.3,416.7
		c2.1,0,3.5,0,4.3,0c-0.2-3.3-0.4-6.5-0.6-9.7c-0.2-0.1-0.4-0.1-0.6-0.2C-927.1,409.9-928.1,413-929.3,416.7z"/>
	<path class="st3" d="M-349,124.5c0-4.3,0.5-8,1.1-11.8c1.9-11.4,8.7-17.7,20.2-17.5c11.1,0.2,22.2,1.5,33.3,2.4
		c3.7,0.3,7.5,0.6,11.2,1.6c4.3,1.1,5.7,4.4,3,7.9c-6.7,8.5-14.5,15.8-26.3,16.1c-3.4,0.1-5.6,1.5-8.2,3.3c-8.2,5.7-16.7,11-25.3,16
		c-4.1,2.4-6.9,0.7-7.6-4.2C-348.4,133.5-348.8,129.7-349,124.5z M-315.1,115.9c-1.4,1.9-3,3.8-4.3,5.9c-4,6.4-10,9.7-17.2,11.3
		c-1.6,0.3-3.3,0.4-4.8,1.1c-1.1,0.5-1.9,1.7-2.9,2.6c1.3,0.6,2.9,2,3.9,1.6C-329.2,134.1-318.2,129.5-315.1,115.9z M-313.4,120.3
		c2.1,0,3.5,0,4.3,0c-0.2-3.3-0.4-6.5-0.6-9.7c-0.2-0.1-0.4-0.1-0.6-0.2C-311.2,113.6-312.2,116.7-313.4,120.3z"/>
	<path class="st3" d="M185,299.9c0-4.3,0.5-8,1.1-11.8c1.9-11.4,8.7-17.7,20.2-17.5c11.1,0.2,22.2,1.5,33.3,2.4
		c3.7,0.3,7.5,0.6,11.2,1.6c4.3,1.1,5.7,4.4,3,7.9c-6.7,8.5-14.5,15.8-26.3,16.1c-3.4,0.1-5.6,1.5-8.2,3.3c-8.2,5.7-16.7,11-25.3,16
		c-4.1,2.4-6.9,0.7-7.6-4.2C185.6,309,185.2,305.2,185,299.9z M218.9,291.4c-1.4,1.9-3,3.8-4.3,5.9c-4,6.4-10,9.7-17.2,11.3
		c-1.6,0.3-3.3,0.4-4.8,1.1c-1.1,0.5-1.9,1.7-2.9,2.6c1.3,0.6,2.9,2,3.9,1.6C204.8,309.6,215.8,305,218.9,291.4z M220.6,295.8
		c2.1,0,3.5,0,4.3,0c-0.2-3.3-0.4-6.5-0.6-9.7c-0.2-0.1-0.4-0.1-0.6-0.2C222.8,289.1,221.8,292.2,220.6,295.8z"/>
	<path class="st1" d="M-352.6,251.6c0-4.3,0.5-8,1.1-11.8c1.9-11.4,8.7-17.7,20.2-17.5c11.1,0.2,22.2,1.5,33.3,2.4
		c3.7,0.3,7.5,0.6,11.2,1.6c4.3,1.1,5.7,4.4,3,7.9c-6.7,8.5-14.5,15.8-26.3,16.1c-3.4,0.1-5.6,1.5-8.2,3.3c-8.2,5.7-16.7,11-25.3,16
		c-4.1,2.4-6.9,0.7-7.6-4.2C-352,260.7-352.4,256.9-352.6,251.6z M-318.7,243.1c-1.4,1.9-3,3.8-4.3,5.9c-4,6.4-10,9.7-17.2,11.3
		c-1.6,0.3-3.3,0.4-4.8,1.1c-1.1,0.5-1.9,1.7-2.9,2.6c1.3,0.6,2.9,2,3.9,1.6C-332.8,261.3-321.8,256.7-318.7,243.1z M-317,247.5
		c2.1,0,3.5,0,4.3,0c-0.2-3.3-0.4-6.5-0.6-9.7c-0.2-0.1-0.4-0.1-0.6-0.2C-314.8,240.8-315.8,243.9-317,247.5z"/>
	<path class="st3" d="M-356.9,767.9c0-4.3,0.5-8,1.1-11.8c1.9-11.4,8.7-17.7,20.2-17.5c11.1,0.2,22.2,1.5,33.3,2.4
		c3.7,0.3,7.5,0.6,11.2,1.6c4.3,1.1,5.7,4.4,3,7.9c-6.7,8.5-14.5,15.8-26.3,16.1c-3.4,0.1-5.6,1.5-8.2,3.3c-8.2,5.7-16.7,11-25.3,16
		c-4.1,2.4-6.9,0.7-7.6-4.2C-356.2,776.9-356.6,773.1-356.9,767.9z M-322.9,759.3c-1.4,1.9-3,3.8-4.3,5.9c-4,6.4-10,9.7-17.2,11.3
		c-1.6,0.3-3.3,0.4-4.8,1.1c-1.1,0.5-1.9,1.7-2.9,2.6c1.3,0.6,2.9,2,3.9,1.6C-337,777.5-326.1,772.9-322.9,759.3z M-321.2,763.8
		c2.1,0,3.5,0,4.3,0c-0.2-3.3-0.4-6.5-0.6-9.7c-0.2-0.1-0.4-0.1-0.6-0.2C-319.1,757-320.1,760.1-321.2,763.8z"/>
	<path class="st2" d="M-352.4,586.3c0-4.3,0.5-8,1.1-11.8c1.9-11.4,8.7-17.7,20.2-17.5c11.1,0.2,22.2,1.5,33.3,2.4
		c3.7,0.3,7.5,0.6,11.2,1.6c4.3,1.1,5.7,4.4,3,7.9c-6.7,8.5-14.5,15.8-26.3,16.1c-3.4,0.1-5.6,1.5-8.2,3.3c-8.2,5.7-16.7,11-25.3,16
		c-4.1,2.4-6.9,0.7-7.6-4.2C-351.7,595.3-352.1,591.6-352.4,586.3z M-318.4,577.7c-1.4,1.9-3,3.8-4.3,5.9c-4,6.4-10,9.7-17.2,11.3
		c-1.6,0.3-3.3,0.4-4.8,1.1c-1.1,0.5-1.9,1.7-2.9,2.6c1.3,0.6,2.9,2,3.9,1.6C-332.5,595.9-321.6,591.3-318.4,577.7z M-316.7,582.2
		c2.1,0,3.5,0,4.3,0c-0.2-3.3-0.4-6.5-0.6-9.7c-0.2-0.1-0.4-0.1-0.6-0.2C-314.6,575.4-315.6,578.5-316.7,582.2z"/>
	<path class="st2" d="M-349.9,420.8c0-4.3,0.5-8,1.1-11.8c1.9-11.4,8.7-17.7,20.2-17.5c11.1,0.2,22.2,1.5,33.3,2.4
		c3.7,0.3,7.5,0.6,11.2,1.6c4.3,1.1,5.7,4.4,3,7.9c-6.7,8.5-14.5,15.8-26.3,16.1c-3.4,0.1-5.6,1.5-8.2,3.3c-8.2,5.7-16.7,11-25.3,16
		c-4.1,2.4-6.9,0.7-7.6-4.2C-349.3,429.8-349.7,426-349.9,420.8z M-316,412.2c-1.4,1.9-3,3.8-4.3,5.9c-4,6.4-10,9.7-17.2,11.3
		c-1.6,0.3-3.3,0.4-4.8,1.1c-1.1,0.5-1.9,1.7-2.9,2.6c1.3,0.6,2.9,2,3.9,1.6C-330.1,430.4-319.1,425.8-316,412.2z M-314.3,416.7
		c2.1,0,3.5,0,4.3,0c-0.2-3.3-0.4-6.5-0.6-9.7c-0.2-0.1-0.4-0.1-0.6-0.2C-312.1,409.9-313.1,413-314.3,416.7z"/>
</g>
<g id="_x31__x5F_N">
	<path id="SVGID_x5F_1_x5F__1_" class="st4" d="M-897.4,139.7c-10.4,18.4-33.8,24.8-52.1,14.4c-18.3-10.4-24.7-33.8-14.3-52.1
		s33.8-24.8,52.1-14.4S-887,121.3-897.4,139.7z"/>
	<text>	<textPath  xlink:href="#SVGID_x5F_1_x5F__1_" startOffset="69.7267%">
<tspan  class="st3" style="font-family:'Microsoft-Yi-Baiti'; font-size:15.6722px; letter-spacing:100.3;">• </tspan><tspan  class="st3" style="font-family:'BankGothicBT-Light'; font-size:15.6722px; letter-spacing:100.3;">hep-y </tspan><tspan  class="st3" style="font-family:'Microsoft-Yi-Baiti'; font-size:15.6722px; letter-spacing:100.3;">•</tspan>	</textPath>
</text>
	<path id="SVGID_x5F_2_x5F_" class="st4" d="M-901.1,267.1c-10.5,18.3-33.9,24.7-52.2,14.2c-18.3-10.5-24.6-33.9-14.1-52.2
		s33.9-24.7,52.2-14.2S-890.6,248.7-901.1,267.1z"/>
	<text>	<textPath  xlink:href="#SVGID_x5F_2_x5F_" startOffset="69.7267%">
<tspan  class="st0" style="font-family:'Microsoft-Yi-Baiti'; font-size:15.6722px; letter-spacing:100.3;">• </tspan><tspan  class="st0" style="font-family:'BankGothicBT-Light'; font-size:15.6722px; letter-spacing:100.3;">hep-y </tspan><tspan  class="st0" style="font-family:'Microsoft-Yi-Baiti'; font-size:15.6722px; letter-spacing:100.3;">•</tspan>	</textPath>
</text>
	<path id="SVGID_x5F_3_x5F_" class="st4" d="M-906.8,785.7c-11.8,17.5-35.6,22.2-53.1,10.4c-17.5-11.8-22-35.6-10.2-53.1
		c11.8-17.5,35.6-22.2,53.1-10.4C-899.6,744.4-895,768.2-906.8,785.7z"/>
	<text>	<textPath  xlink:href="#SVGID_x5F_3_x5F_" startOffset="69.7267%">
<tspan  class="st3" style="font-family:'Microsoft-Yi-Baiti'; font-size:15.6722px; letter-spacing:100.3;">• </tspan><tspan  class="st3" style="font-family:'BankGothicBT-Light'; font-size:15.6722px; letter-spacing:100.3;">hepy </tspan><tspan  class="st3" style="font-family:'Microsoft-Yi-Baiti'; font-size:15.6722px; letter-spacing:100.3;">•</tspan>	</textPath>
</text>
	<path id="SVGID_x5F_4_x5F_" class="st4" d="M-900.9,601.8c-10.6,18.3-33.9,24.6-52.2,14.1c-18.3-10.5-24.5-33.9-13.9-52.2
		c10.6-18.3,33.9-24.6,52.2-14.1C-896.6,560.1-890.3,583.5-900.9,601.8z"/>
	<text>	<textPath  xlink:href="#SVGID_x5F_4_x5F_" startOffset="69.7267%">
<tspan  class="st2" style="font-family:'Microsoft-Yi-Baiti'; font-size:15.6722px; letter-spacing:100.3;">• </tspan><tspan  class="st2" style="font-family:'BankGothicBT-Light'; font-size:15.6722px; letter-spacing:100.3;">hep-y </tspan><tspan  class="st2" style="font-family:'Microsoft-Yi-Baiti'; font-size:15.6722px; letter-spacing:100.3;">•</tspan>	</textPath>
</text>
	<path id="SVGID_x5F_5_x5F_" class="st4" d="M-898.5,436.2c-10.5,18.3-33.9,24.7-52.2,14.2s-24.5-33.9-14-52.2s33.9-24.7,52.2-14.2
		C-894.2,394.5-887.9,417.9-898.5,436.2z"/>
	<text>	<textPath  xlink:href="#SVGID_x5F_5_x5F_" startOffset="69.7267%">
<tspan  class="st2" style="font-family:'Microsoft-Yi-Baiti'; font-size:15.6722px; letter-spacing:100.3;">• </tspan><tspan  class="st2" style="font-family:'BankGothicBT-Light'; font-size:15.6722px; letter-spacing:100.3;">hep-y </tspan><tspan  class="st2" style="font-family:'Microsoft-Yi-Baiti'; font-size:15.6722px; letter-spacing:100.3;">•</tspan>	</textPath>
</text>
	<path id="SVGID_x5F_6_x5F_" class="st4" d="M-282.4,139.7c-10.4,18.4-33.8,24.8-52.1,14.4c-18.3-10.4-24.7-33.8-14.3-52.1
		s33.8-24.8,52.1-14.4S-272,121.3-282.4,139.7z"/>
	<text>	<textPath  xlink:href="#SVGID_x5F_6_x5F_" startOffset="69.7267%">
<tspan  class="st3" style="font-family:'Microsoft-Yi-Baiti'; font-size:15.6722px; letter-spacing:100.3;">• </tspan><tspan  class="st3" style="font-family:'BankGothicBT-Light'; font-size:15.6722px; letter-spacing:100.3;">hep-y </tspan><tspan  class="st3" style="font-family:'Microsoft-Yi-Baiti'; font-size:15.6722px; letter-spacing:100.3;">•</tspan>	</textPath>
</text>
	<path id="SVGID_x5F_7_x5F_" class="st4" d="M251.5,315.2c-10.4,18.4-33.8,24.8-52.1,14.4c-18.3-10.4-24.7-33.8-14.3-52.1
		c10.4-18.4,33.8-24.8,52.1-14.4C255.6,273.5,262,296.8,251.5,315.2z"/>
	<text>	<textPath  xlink:href="#SVGID_x5F_7_x5F_" startOffset="69.7267%">
<tspan  class="st3" style="font-family:'Microsoft-Yi-Baiti'; font-size:15.6722px; letter-spacing:100.3;">• </tspan><tspan  class="st3" style="font-family:'BankGothicBT-Light'; font-size:15.6722px; letter-spacing:100.3;">hep-y </tspan><tspan  class="st3" style="font-family:'Microsoft-Yi-Baiti'; font-size:15.6722px; letter-spacing:100.3;">•</tspan>	</textPath>
</text>
	<path id="SVGID_x5F_8_x5F_" class="st4" d="M-286.1,267.1c-10.5,18.3-33.9,24.7-52.2,14.2c-18.3-10.5-24.6-33.9-14.1-52.2
		s33.9-24.7,52.2-14.2S-275.6,248.7-286.1,267.1z"/>
	<text>	<textPath  xlink:href="#SVGID_x5F_8_x5F_" startOffset="69.7267%">
<tspan  class="st1" style="font-family:'Microsoft-Yi-Baiti'; font-size:15.6722px; letter-spacing:100.3;">• </tspan><tspan  class="st1" style="font-family:'BankGothicBT-Light'; font-size:15.6722px; letter-spacing:100.3;">hep-y </tspan><tspan  class="st1" style="font-family:'Microsoft-Yi-Baiti'; font-size:15.6722px; letter-spacing:100.3;">•</tspan>	</textPath>
</text>
	<path id="SVGID_x5F_9_x5F_" class="st4" d="M-291.9,785.7c-11.8,17.5-35.6,22.2-53.1,10.4c-17.5-11.8-22-35.6-10.2-53.1
		c11.8-17.5,35.6-22.2,53.1-10.4C-284.6,744.4-280,768.2-291.9,785.7z"/>
	<text>	<textPath  xlink:href="#SVGID_x5F_9_x5F_" startOffset="69.7267%">
<tspan  class="st3" style="font-family:'Microsoft-Yi-Baiti'; font-size:15.6722px; letter-spacing:100.3;">• </tspan><tspan  class="st3" style="font-family:'BankGothicBT-Light'; font-size:15.6722px; letter-spacing:100.3;">hepy </tspan><tspan  class="st3" style="font-family:'Microsoft-Yi-Baiti'; font-size:15.6722px; letter-spacing:100.3;">•</tspan>	</textPath>
</text>
	<path id="SVGID_x5F_10_x5F_" class="st4" d="M-285.9,601.8c-10.6,18.3-33.9,24.6-52.2,14.1c-18.3-10.5-24.5-33.9-13.9-52.2
		c10.6-18.3,33.9-24.6,52.2-14.1C-281.6,560.1-275.4,583.5-285.9,601.8z"/>
	<text>	<textPath  xlink:href="#SVGID_x5F_10_x5F_" startOffset="69.7267%">
<tspan  class="st2" style="font-family:'Microsoft-Yi-Baiti'; font-size:15.6722px; letter-spacing:100.3;">• </tspan><tspan  class="st2" style="font-family:'BankGothicBT-Light'; font-size:15.6722px; letter-spacing:100.3;">hep-y </tspan><tspan  class="st2" style="font-family:'Microsoft-Yi-Baiti'; font-size:15.6722px; letter-spacing:100.3;">•</tspan>	</textPath>
</text>
	<path id="SVGID_x5F_11_x5F_" class="st4" d="M-283.5,436.2c-10.5,18.3-33.9,24.7-52.2,14.2s-24.5-33.9-14-52.2
		c10.5-18.3,33.9-24.7,52.2-14.2C-279.2,394.5-272.9,417.9-283.5,436.2z"/>
	<text>	<textPath  xlink:href="#SVGID_x5F_11_x5F_" startOffset="69.7267%">
<tspan  class="st2" style="font-family:'Microsoft-Yi-Baiti'; font-size:15.6722px; letter-spacing:100.3;">• </tspan><tspan  class="st2" style="font-family:'BankGothicBT-Light'; font-size:15.6722px; letter-spacing:100.3;">hep-y </tspan><tspan  class="st2" style="font-family:'Microsoft-Yi-Baiti'; font-size:15.6722px; letter-spacing:100.3;">•</tspan>	</textPath>
</text>
</g>
</svg>
