<svg xmlns="http://www.w3.org/2000/svg" viewBox="0 0 177.43 177.43"><defs><style>.cls-1{fill:#f2d86d;}.cls-2,.cls-3{fill:#fff;}.cls-3{stroke:#fff;stroke-miterlimit:10;}</style></defs><title>logotip_3</title><g id="_1_N" data-name="1_N"><circle class="cls-1" cx="88.71" cy="88.71" r="88.71"/><path class="cls-2" d="M263.55,495.58a8.44,8.44,0,0,0,.32-1.25,11.61,11.61,0,0,0,.41-2.2c.06-1.85,0-3.71,0-5.56a5.69,5.69,0,0,0-2.25-4.5,8,8,0,0,0-4.47-2.13c-.38,0-.77-.09-1.15-.09a28.21,28.21,0,0,1-13.54-3.49,28.61,28.61,0,0,1-4.55-3.37c-2.91-2.48-4.82-5.76-6.85-8.94-1.81-2.83-3.69-5.61-5.37-8.52-1.31-2.27-2.38-4.67-3.48-7a1.75,1.75,0,0,1,.23-1.89,5.49,5.49,0,0,1,2.31-2,1.61,1.61,0,0,1,1,0,5.3,5.3,0,0,1,2.23,1.69c3.34,4.12,6.72,8.2,10.06,12.3.76.93,1.48,1.91,2.16,2.9a12.13,12.13,0,0,0,9.78,5.29c2,.14,4,.18,5.93.27h.8c-.32-.23-.49-.35-.66-.46-3.34-2.09-6.7-4.15-10-6.28a11.11,11.11,0,0,1-2.27-2,1.82,1.82,0,0,1,.58-2.71,2.61,2.61,0,0,1,2.3-.28c2.36.93,4.71,1.86,7,2.85a123.78,123.78,0,0,1,13.16,6.11,37.23,37.23,0,0,1,9.55,7.41,5,5,0,0,1,.82,1.45,10.56,10.56,0,0,1,1,4.15c-.05,6.51,0,13,0,19.52,0,.4,0,.9-.07.9-.43,0-2.55-.17-4.21-.34-.15,0-1.49-.16-2.29-.27-2.49-.33-3.53-.46-5.89-.91Z" transform="translate(-195 -320.47)"/><path class="cls-2" d="M303.52,495.66a9.42,9.42,0,0,1-.33-1.33,11.61,11.61,0,0,1-.41-2.2c-.06-1.85,0-3.71,0-5.56a5.69,5.69,0,0,1,2.25-4.5,8,8,0,0,1,4.47-2.13c.38,0,.77-.09,1.15-.09a28.21,28.21,0,0,0,13.54-3.49,28.61,28.61,0,0,0,4.55-3.37c2.91-2.48,4.82-5.76,6.85-8.94,1.81-2.83,3.69-5.61,5.37-8.52,1.31-2.27,2.38-4.67,3.48-7a1.75,1.75,0,0,0-.23-1.89,5.49,5.49,0,0,0-2.31-2,1.61,1.61,0,0,0-1,0,5.3,5.3,0,0,0-2.23,1.69c-3.34,4.12-6.72,8.2-10.06,12.3-.76.93-1.48,1.91-2.16,2.9a12.13,12.13,0,0,1-9.78,5.29c-2,.14-4,.18-5.93.27h-.8c.32-.23.49-.35.66-.46,3.34-2.09,6.7-4.15,10-6.28a11.11,11.11,0,0,0,2.27-2,1.82,1.82,0,0,0-.58-2.71,2.61,2.61,0,0,0-2.3-.28c-2.36.93-4.71,1.86-7,2.85a123.78,123.78,0,0,0-13.16,6.11,37.23,37.23,0,0,0-9.55,7.41,5,5,0,0,0-.82,1.45,10.56,10.56,0,0,0-1,4.15c.05,6.51,0,13,0,19.52,0,.4,0,1,.09,1,.54,0,2.89-.22,3.1-.27a27.64,27.64,0,0,0,3.41-.31,41.49,41.49,0,0,0,5.43-.84C301.38,496.27,302.56,495.9,303.52,495.66Z" transform="translate(-195 -320.47)"/><path class="cls-2" d="M232.28,418.41a109.56,109.56,0,0,1,1.71-18c2.85-17.38,13.29-27.1,30.87-26.81,17,.29,34,2.23,51,3.62A105.87,105.87,0,0,1,333,379.62c6.53,1.64,8.77,6.77,4.58,12-10.3,13-22.26,24.19-40.24,24.66-5.17.14-8.54,2.25-12.61,5.07-12.53,8.69-25.51,16.79-38.71,24.42-6.27,3.63-10.51,1-11.64-6.39A175,175,0,0,1,232.28,418.41Zm52-13.15c-2.2,3-4.58,5.84-6.55,9-6.17,9.79-15.34,14.88-26.33,17.24-2.45.53-5.07.67-7.31,1.67-1.73.77-3,2.61-4.44,4,2,.89,4.47,3,5.93,2.48C262.66,433.2,279.42,426.16,284.24,405.27Zm2.6,6.84h6.62l-1-14.79-.84-.29Z" transform="translate(-195 -320.47)"/><path class="cls-3" d="M231.45,370.72a2.15,2.15,0,0,1-.46-.53,1.9,1.9,0,0,1-.24-.6,1.58,1.58,0,0,1,0-.58,1,1,0,0,1,.23-.49,1,1,0,0,1,.45-.31,1.41,1.41,0,0,1,.57-.08,2.07,2.07,0,0,1,.63.15,2.14,2.14,0,0,1,.6.36,2.24,2.24,0,0,1,.46.53,2,2,0,0,1,.25.6,1.44,1.44,0,0,1,0,.59,1.06,1.06,0,0,1-.23.5,1,1,0,0,1-.45.31,1.51,1.51,0,0,1-.58.08,2,2,0,0,1-.63-.15A2.22,2.22,0,0,1,231.45,370.72Z" transform="translate(-195 -320.47)"/><path class="cls-3" d="M252.25,363.08l-5.84-11.83,1.72-.85,2.34,4.75,7.25-3.58-2.35-4.75,1.72-.85,5.84,11.83-1.72.85-2.61-5.28L251.36,357l2.61,5.29Z" transform="translate(-195 -320.47)"/><path class="cls-3" d="M268.52,356.16l-2.38-13,10-1.84.35,1.93-8.16,1.49.61,3.34,4.92-.9.35,1.93-4.92.9.71,3.9,8.25-1.51.35,1.9Z" transform="translate(-195 -320.47)"/><path class="cls-3" d="M283.39,354.17,284.46,341l8.53.69a2.15,2.15,0,0,1,1.65.73,3,3,0,0,1,.36,2l-.24,2.94a2.91,2.91,0,0,1-.67,1.89,2.15,2.15,0,0,1-1.74.45l-6.62-.54-.42,5.16ZM292,343.54l-5.76-.47-.34,4.16,5.76.47a1.16,1.16,0,0,0,.91-.21,1.46,1.46,0,0,0,.33-.94l.14-1.67a1.49,1.49,0,0,0-.17-1A1.16,1.16,0,0,0,292,343.54Z" transform="translate(-195 -320.47)"/><path class="cls-3" d="M300.19,349.3l.67-2.18,5,1.53-.67,2.18Z" transform="translate(-195 -320.47)"/><path class="cls-3" d="M310.86,361.19l2.77-5.06-1.07-9.07,2,1.11.8,7,6.13-3.18,2,1.08-8.19,4-2.77,5.06Z" transform="translate(-195 -320.47)"/><path class="cls-3" d="M333.47,368.35a2.14,2.14,0,0,1,.6-.36,1.88,1.88,0,0,1,.63-.14,1.59,1.59,0,0,1,.58.08,1,1,0,0,1,.45.31,1,1,0,0,1,.23.5,1.44,1.44,0,0,1,0,.58,2.06,2.06,0,0,1-.25.59,2.14,2.14,0,0,1-.46.53,2.26,2.26,0,0,1-.6.37,2,2,0,0,1-.63.15,1.43,1.43,0,0,1-.58-.08,1,1,0,0,1-.69-.81,1.48,1.48,0,0,1,0-.58,1.93,1.93,0,0,1,.25-.6A2.22,2.22,0,0,1,333.47,368.35Z" transform="translate(-195 -320.47)"/></g></svg>