<?xml version="1.0" encoding="utf-8"?>
<!-- Generator: Adobe Illustrator 21.0.2, SVG Export Plug-In . SVG Version: 6.00 Build 0)  -->
<svg version="1.1" id="Layer_1" xmlns="http://www.w3.org/2000/svg" xmlns:xlink="http://www.w3.org/1999/xlink" x="0px" y="0px"
	 viewBox="0 0 177.4 177.4" style="enable-background:new 0 0 177.4 177.4;" xml:space="preserve">
<style type="text/css">
	.st0{fill:#F2D86D;}
</style>
<title>logotip_3</title>
<g id="_1_N">
	<path class="st0" d="M68.5,175.1c0.1-0.4,0.2-0.8,0.3-1.3c0.2-0.7,0.3-1.5,0.4-2.2c0.1-1.9,0-3.7,0-5.6c0-1.8-0.8-3.4-2.3-4.5
		c-1.2-1.2-2.8-1.9-4.5-2.1c-0.4,0-0.8-0.1-1.1-0.1c-4.7,0-9.4-1.2-13.5-3.5c-1.6-1-3.1-2.1-4.6-3.4c-2.9-2.5-4.8-5.8-6.9-8.9
		c-1.8-2.8-3.7-5.6-5.4-8.5c-1.3-2.3-2.4-4.7-3.5-7c-0.3-0.6-0.2-1.4,0.2-1.9c0.6-0.9,1.4-1.6,2.3-2c0.3-0.1,0.7-0.1,1,0
		c0.9,0.4,1.7,0.9,2.2,1.7c3.3,4.1,6.7,8.2,10.1,12.3c0.8,0.9,1.5,1.9,2.2,2.9c2.2,3.2,5.9,5.2,9.8,5.3c2,0.1,4,0.2,5.9,0.3h0.8
		c-0.3-0.2-0.5-0.4-0.7-0.5c-3.3-2.1-6.7-4.1-10-6.3c-0.8-0.6-1.6-1.2-2.3-2c-0.6-0.8-0.5-1.9,0.3-2.6c0.1-0.1,0.2-0.1,0.2-0.2
		c0.7-0.4,1.5-0.6,2.3-0.3c2.4,0.9,4.7,1.9,7,2.9c4.5,1.8,8.9,3.8,13.2,6.1c3.6,1.9,6.8,4.4,9.5,7.4c0.4,0.4,0.6,0.9,0.8,1.5
		c0.6,1.3,1,2.7,1,4.1c0,6.5,0,13,0,19.5c0,0.4,0,0.9-0.1,0.9c-0.4,0-2.5-0.2-4.2-0.3c-0.1,0-1.5-0.2-2.3-0.3
		c-2.5-0.3-3.5-0.5-5.9-0.9L68.5,175.1z"/>
	<path class="st0" d="M108.5,175.2c-0.1-0.4-0.3-0.9-0.3-1.3c-0.2-0.7-0.3-1.5-0.4-2.2c-0.1-1.9,0-3.7,0-5.6c0-1.8,0.8-3.4,2.3-4.5
		c1.2-1.2,2.8-1.9,4.5-2.1c0.4,0,0.8-0.1,1.1-0.1c4.7,0,9.4-1.2,13.5-3.5c1.6-1,3.1-2.1,4.5-3.4c2.9-2.5,4.8-5.8,6.9-8.9
		c1.8-2.8,3.7-5.6,5.4-8.5c1.3-2.3,2.4-4.7,3.5-7c0.3-0.6,0.2-1.4-0.2-1.9c-0.6-0.9-1.4-1.6-2.3-2c-0.3-0.1-0.7-0.1-1,0
		c-0.9,0.4-1.7,0.9-2.2,1.7c-3.3,4.1-6.7,8.2-10.1,12.3c-0.8,0.9-1.5,1.9-2.2,2.9c-2.2,3.2-5.9,5.2-9.8,5.3c-2,0.1-4,0.2-5.9,0.3
		h-0.8c0.3-0.2,0.5-0.4,0.7-0.5c3.3-2.1,6.7-4.1,10-6.3c0.8-0.6,1.6-1.2,2.3-2c0.6-0.8,0.5-1.9-0.3-2.6c-0.1-0.1-0.2-0.1-0.2-0.2
		c-0.7-0.4-1.5-0.6-2.3-0.3c-2.4,0.9-4.7,1.9-7,2.9c-4.5,1.8-8.9,3.8-13.2,6.1c-3.6,1.9-6.8,4.4-9.5,7.4c-0.4,0.4-0.6,0.9-0.8,1.5
		c-0.6,1.3-1,2.7-1,4.1c0,6.5,0,13,0,19.5c0,0.4,0,1,0.1,1c0.5,0,2.9-0.2,3.1-0.3c1.1,0,2.3-0.1,3.4-0.3c1.8-0.2,3.6-0.4,5.4-0.8
		C106.4,175.8,107.6,175.4,108.5,175.2z"/>
	<path class="st0" d="M37.3,97.9c0.1-6,0.6-12.1,1.7-18c2.9-17.4,13.3-27.1,30.9-26.8c17,0.3,34,2.2,51,3.6
		c5.8,0.3,11.5,1.1,17.1,2.4c6.5,1.6,8.8,6.8,4.6,12c-10.3,13-22.3,24.2-40.2,24.7c-5.2,0.1-8.5,2.3-12.6,5.1
		c-12.5,8.7-25.5,16.8-38.7,24.4c-6.3,3.6-10.5,1-11.6-6.4C38.3,112,37.6,105,37.3,97.9z M89.3,84.8c-2.2,3-4.6,5.8-6.5,9
		c-6.2,9.8-15.3,14.9-26.3,17.2c-2.4,0.5-5.1,0.7-7.3,1.7c-1.7,0.8-3,2.6-4.4,4c2,0.9,4.5,3,5.9,2.5
		C67.7,112.7,84.4,105.7,89.3,84.8L89.3,84.8z M91.9,91.6h6.6l-1-14.8l-0.8-0.3L91.9,91.6z"/>
	<path class="st0" d="M36.4,50.2c-0.2-0.2-0.3-0.3-0.5-0.5c-0.1-0.2-0.2-0.4-0.2-0.6c0-0.2,0-0.4,0-0.6c0-0.2,0.1-0.4,0.2-0.5
		c0.1-0.1,0.3-0.3,0.4-0.3c0.2-0.1,0.4-0.1,0.6-0.1c0.2,0,0.4,0.1,0.6,0.1c0.2,0.1,0.4,0.2,0.6,0.4c0.2,0.2,0.3,0.3,0.5,0.5
		c0.1,0.2,0.2,0.4,0.3,0.6c0,0.2,0,0.4,0,0.6c0,0.2-0.1,0.4-0.2,0.5c-0.1,0.1-0.3,0.3-0.4,0.3c-0.2,0.1-0.4,0.1-0.6,0.1
		c-0.2,0-0.4-0.1-0.6-0.1C36.8,50.5,36.6,50.4,36.4,50.2z"/>
	<path class="st0" d="M57.3,42.6l-5.8-11.8l1.7-0.9l2.3,4.8l7.3-3.6l-2.4-4.8l1.7-0.9l5.8,11.8l-1.7,0.9l-2.6-5.3l-7.2,3.6l2.6,5.3
		L57.3,42.6z"/>
	<path class="st0" d="M73.5,35.7l-2.4-13l10-1.8l0.4,1.9l-8.2,1.5l0.6,3.3l4.9-0.9l0.4,1.9l-4.9,0.9l0.7,3.9l8.3-1.5l0.4,1.9
		L73.5,35.7z"/>
	<path class="st0" d="M88.4,33.7l1.1-13.2l8.5,0.7c0.6,0,1.2,0.3,1.6,0.7c0.3,0.6,0.5,1.3,0.4,2l-0.2,2.9c0,0.7-0.2,1.4-0.7,1.9
		c-0.5,0.4-1.1,0.6-1.7,0.5l-6.6-0.5l-0.4,5.2L88.4,33.7z M97,23.1l-5.8-0.5l-0.3,4.2l5.8,0.5c0.3,0.1,0.6,0,0.9-0.2
		c0.2-0.3,0.3-0.6,0.3-0.9l0.1-1.7c0.1-0.3,0-0.7-0.2-1C97.6,23.2,97.3,23.1,97,23.1z"/>
	<path class="st0" d="M105.2,28.8l0.7-2.2l5,1.5l-0.7,2.2L105.2,28.8z"/>
	<path class="st0" d="M115.9,40.7l2.8-5.1l-1.1-9.1l2,1.1l0.8,7l6.1-3.2l2,1.1l-8.2,4l-2.8,5.1L115.9,40.7z"/>
	<path class="st0" d="M138.5,47.9c0.2-0.2,0.4-0.3,0.6-0.4c0.2-0.1,0.4-0.1,0.6-0.1c0.2,0,0.4,0,0.6,0.1c0.2,0.1,0.3,0.2,0.5,0.3
		c0.1,0.1,0.2,0.3,0.2,0.5c0,0.2,0,0.4,0,0.6c-0.1,0.2-0.1,0.4-0.3,0.6c-0.1,0.2-0.3,0.4-0.5,0.5c-0.2,0.2-0.4,0.3-0.6,0.4
		c-0.2,0.1-0.4,0.1-0.6,0.1c-0.2,0-0.4,0-0.6-0.1c-0.4-0.1-0.6-0.4-0.7-0.8c0-0.2,0-0.4,0-0.6c0-0.2,0.1-0.4,0.3-0.6
		C138.1,48.2,138.3,48,138.5,47.9z"/>
</g>
</svg>
