<svg xmlns="http://www.w3.org/2000/svg" viewBox="0 0 595.28 841.89"><defs><style>.cls-1,.cls-2{fill:#f2d86d;}.cls-2{font-size:27.22px;font-family:OpenSans-Semibold, Open Sans;font-weight:700;}</style></defs><title>logotip_4</title><g id="_1_R" data-name="1_R"><path class="cls-1" d="M269.93,525.71a9.58,9.58,0,0,0,.36-1.42,13.18,13.18,0,0,0,.46-2.5c.07-2.1,0-4.2,0-6.31a6.45,6.45,0,0,0-2.55-5.11,9.13,9.13,0,0,0-5.07-2.42c-.44,0-.87-.1-1.31-.11a32,32,0,0,1-15.36-4,32.46,32.46,0,0,1-5.16-3.82c-3.3-2.82-5.46-6.54-7.77-10.14-2.05-3.21-4.19-6.37-6.09-9.67-1.48-2.57-2.7-5.3-4-8a2,2,0,0,1,.26-2.14,6.23,6.23,0,0,1,2.62-2.26,1.83,1.83,0,0,1,1.17,0,6,6,0,0,1,2.53,1.92c3.79,4.67,7.62,9.3,11.42,14,.86,1.06,1.68,2.16,2.45,3.29,2.67,3.92,6.5,5.68,11.1,6,2.24.15,4.49.21,6.73.3h.91c-.37-.26-.55-.4-.75-.52-3.79-2.37-7.6-4.71-11.36-7.13a12.61,12.61,0,0,1-2.58-2.24,2.07,2.07,0,0,1,.66-3.07,3,3,0,0,1,2.61-.32c2.67,1.06,5.35,2.12,8,3.24a140.46,140.46,0,0,1,14.93,6.93,42.25,42.25,0,0,1,10.84,8.4,5.73,5.73,0,0,1,.93,1.65,12,12,0,0,1,1.14,4.71c-.06,7.38,0,14.77,0,22.15,0,.45,0,1-.08,1-.49,0-2.9-.2-4.78-.38-.17,0-1.69-.18-2.59-.3-2.82-.38-4-.53-6.69-1Z"/><path class="cls-1" d="M315.29,525.8a10.69,10.69,0,0,1-.37-1.51,13.18,13.18,0,0,1-.46-2.5c-.07-2.1,0-4.2,0-6.31a6.45,6.45,0,0,1,2.55-5.11,9.13,9.13,0,0,1,5.07-2.42c.44,0,.87-.1,1.31-.11a32,32,0,0,0,15.36-4,32.46,32.46,0,0,0,5.16-3.82c3.3-2.82,5.46-6.54,7.77-10.14,2.05-3.21,4.19-6.37,6.09-9.67,1.48-2.57,2.7-5.3,4-8a2,2,0,0,0-.26-2.14,6.23,6.23,0,0,0-2.62-2.26,1.83,1.83,0,0,0-1.17,0,6,6,0,0,0-2.53,1.92c-3.79,4.67-7.62,9.3-11.42,14-.86,1.06-1.68,2.16-2.45,3.29-2.67,3.92-6.5,5.68-11.1,6-2.24.15-4.49.21-6.73.3h-.91c.37-.26.55-.4.75-.52,3.79-2.37,7.6-4.71,11.36-7.13a12.61,12.61,0,0,0,2.58-2.24,2.07,2.07,0,0,0-.66-3.07,3,3,0,0,0-2.61-.32c-2.67,1.06-5.35,2.12-8,3.24A140.46,140.46,0,0,0,311,490.23a42.25,42.25,0,0,0-10.84,8.4,5.73,5.73,0,0,0-.93,1.65,12,12,0,0,0-1.14,4.71c.06,7.38,0,14.77,0,22.15,0,.45,0,1.12.1,1.12.61,0,3.28-.25,3.52-.3a31.37,31.37,0,0,0,3.87-.35,47.08,47.08,0,0,0,6.17-1C312.86,526.49,314.2,526.08,315.29,525.8Z"/></g><g id="_1_J" data-name="1_J"><path class="cls-1" d="M238.6,437.39a115.86,115.86,0,0,1,1.81-19c3-18.38,14.05-28.66,32.65-28.35,18,.31,36,2.36,54,3.83a112,112,0,0,1,18.08,2.52c6.91,1.73,9.27,7.16,4.85,12.74-10.9,13.76-23.54,25.58-42.56,26.07-5.47.14-9,2.37-13.34,5.36-13.25,9.19-27,17.75-40.94,25.83-6.63,3.84-11.11,1.08-12.31-6.76A185,185,0,0,1,238.6,437.39Zm54.94-13.9c-2.32,3.15-4.85,6.18-6.93,9.48-6.52,10.36-16.22,15.73-27.84,18.23-2.59.56-5.36.71-7.73,1.76-1.83.82-3.15,2.76-4.7,4.2,2.12.94,4.72,3.2,6.27,2.62C270.73,453,288.45,445.57,293.54,423.48Zm2.75,7.23h7l-1-15.64-.89-.31Z"/></g><g id="_1_N" data-name="1_N"><text class="cls-2" transform="matrix(0.67, -0.74, 0.96, 0.88, 240.12, 390.84)">•</text><text class="cls-2" transform="matrix(0.78, -0.62, 0.81, 1.02, 248.4, 382.18)"> </text><text class="cls-2" transform="translate(254.7 376.4) rotate(-25.57) scale(1 1.3)">H</text><text class="cls-2" transform="matrix(0.98, -0.16, 0.21, 1.28, 274.28, 367.61)">E</text><text class="cls-2" transform="translate(290.49 364.98) rotate(5.34) scale(1 1.3)">P</text><text class="cls-2" transform="matrix(0.95, 0.3, -0.39, 1.24, 308.45, 367.24)">-</text><text class="cls-2" transform="translate(318.27 370.24) rotate(28.99) scale(1 1.3)">Y</text><text class="cls-2" transform="translate(333.27 379.34) rotate(40.89) scale(1 1.3)"> </text><text class="cls-2" transform="matrix(0.64, 0.76, -1, 0.84, 339.94, 385.13)">•</text></g></svg>